<svg xmlns="http://www.w3.org/2000/svg" width="595.279" height="841.891" viewBox="0 0 595.279 841.891"><path fill="#FFF" d="M57.675 391.73v-3.758c-12.536 0-25.77 2.68-25.77 17.458 0 7.487 3.877 12.557 10.527 12.557 4.884 0 9.246-2.995 12-7.87 3.414-5.998 3.243-11.635 3.243-18.387m17.484 42.255c-1.148 1.023-2.806 1.098-4.1.42-5.753-4.782-6.777-7.005-9.947-11.563-9.51 9.71-16.245 12.612-28.58 12.612-14.583 0-25.95-9.004-25.95-27.02 0-14.073 7.638-23.653 18.492-28.34 9.413-4.14 22.556-4.875 32.6-6.02v-2.24c0-4.13.315-9.004-2.098-12.567-2.124-3.19-6.17-4.51-9.732-4.51-6.604 0-12.51 3.394-13.942 10.416-.298 1.562-1.442 3.097-3.005 3.172l-16.826-1.805c-1.414-.316-2.977-1.47-2.586-3.637 3.878-20.388 22.295-26.527 38.776-26.527 8.437 0 19.46 2.242 26.115 8.632 8.436 7.87 7.632 18.38 7.632 29.82v27.02c0 8.12 3.364 11.683 6.534 16.073 1.12 1.555 1.364 3.434-.047 4.606-3.536 2.948-9.827 8.437-13.29 11.506h-.048m209.81-42.3v-3.758c-12.568 0-25.804 2.68-25.804 17.458 0 7.487 3.896 12.557 10.556 12.557 4.855 0 9.246-2.996 12-7.87 3.412-6 3.245-11.636 3.245-18.388m17.478 42.255c-1.144 1.023-2.8 1.098-4.093.42-5.757-4.782-6.808-7.005-9.952-11.563-9.506 9.71-16.258 12.612-28.573 12.612-14.612 0-25.95-9.004-25.95-27.02 0-14.073 7.608-23.653 18.48-28.34 9.414-4.14 22.557-4.875 32.61-6.02v-2.24c0-4.13.317-9.004-2.13-12.567-2.092-3.19-6.138-4.51-9.728-4.51-6.605 0-12.483 3.393-13.925 10.415-.288 1.562-1.433 3.097-3.022 3.172l-16.8-1.805c-1.412-.316-3.003-1.47-2.584-3.637 3.85-20.388 22.284-26.527 38.775-26.527 8.437 0 19.458 2.242 26.108 8.632 8.445 7.87 7.637 18.38 7.637 29.82v27.02c0 8.12 3.367 11.683 6.538 16.073 1.1 1.554 1.34 3.433-.092 4.605-3.534 2.948-9.83 8.437-13.29 11.506m213.51.198h-17.264c-1.74-.12-3.125-1.507-3.125-3.22V342.01c.147-1.628 1.59-2.902 3.347-2.902h16.063c1.517.093 2.763 1.097 3.098 2.493v13.608h.316c4.856-12.175 11.655-17.98 23.635-17.98 7.776 0 15.356 2.81 20.24 10.493 4.53 7.116 4.53 19.087 4.53 27.7v56.01c-.196 1.564-1.63 2.8-3.34 2.8H546.08c-1.58-.12-2.9-1.29-3.07-2.8V383.1c0-9.727 1.117-23.967-10.853-23.967-4.223 0-8.092 2.827-10.026 7.115-2.436 5.44-2.752 10.854-2.752 16.854v47.91c0 1.786-1.534 3.22-3.385 3.22m-73.042-97.005c25.73 0 39.65 22.1 39.65 50.19 0 27.14-15.383 48.673-39.65 48.673-25.26 0-39.01-22.1-39.01-49.623 0-27.708 13.925-49.24 39.01-49.24m.15 18.174c-12.78 0-13.58 17.403-13.58 28.257 0 10.873-.167 34.09 13.43 34.09 13.44 0 14.075-18.725 14.075-30.137 0-7.517-.316-16.483-2.586-23.607-1.945-6.195-5.824-8.604-11.34-8.604m-320.585 78.827H105.18c-1.657-.12-2.978-1.358-3.1-2.95v-88.975c0-1.786 1.49-3.2 3.34-3.2h16.166c1.684.094 3.022 1.368 3.144 2.977v11.635h.316c4.223-11.246 12.147-16.49 22.825-16.49 10.856 0 17.637 5.245 22.51 16.49 4.196-11.246 13.73-16.49 23.95-16.49 7.266 0 15.22 3.003 20.064 9.728 5.488 7.487 4.372 18.37 4.372 27.904v56.15c0 1.787-1.488 3.22-3.35 3.22h-17.31c-1.73-.12-3.125-1.507-3.125-3.22V383.85c0-3.757.346-13.114-.482-16.676-1.293-5.98-5.17-7.655-10.194-7.655-4.194 0-8.585 2.8-10.36 7.282-1.777 4.492-1.61 12-1.61 17.05v47.156c0 1.785-1.488 3.218-3.34 3.218h-17.31c-1.757-.12-3.124-1.507-3.124-3.22V383.85c0-9.924 1.627-24.527-10.69-24.527-12.453 0-11.97 14.24-11.97 24.527v47.157c0 1.785-1.488 3.218-3.34 3.218M330.4 354.81v-12.73c0-1.925 1.46-3.218 3.218-3.218h56.988c1.823 0 3.293 1.32 3.293 3.218v10.9c0 1.833-1.564 4.224-4.3 8l-29.53 42.163c10.975-.27 22.555 1.367 32.507 6.976 2.242 1.263 2.855 3.114 3.023 4.947v13.58c0 1.85-2.046 4.027-4.194 2.902-17.532-9.19-40.823-10.195-60.207.1-1.974 1.07-4.048-1.077-4.048-2.93v-12.9c0-2.073 0-5.61 2.103-8.752l34.21-49.065h-29.773c-1.833-.002-3.294-1.295-3.294-3.192m37.26 98.1c-4.15-5.32-27.514-2.51-37.996-1.272-3.19.39-3.684-2.39-.8-4.39 18.603-13.088 49.13-9.312 52.69-4.92 3.563 4.407-.93 35.018-18.406 49.62-2.688 2.242-5.246 1.052-4.056-1.925 3.936-9.803 12.734-31.773 8.567-37.112m-13.534 15.48c5.386-4 .78-9.943-4.734-7.608-36.48 15.486-76.15 22.946-112.22 22.946-53.474 0-105.244-14.65-147.114-39.01-3.658-2.15-6.392 1.608-3.34 4.36 38.79 35.04 90.078 56.116 147.04 56.116 40.627 0 87.812-12.808 120.366-36.805z"/></svg>