<svg width="96" height="74" viewBox="0 0 96 74" xmlns="http://www.w3.org/2000/svg"><title>ameli</title><path d="M92.41 22.607c2.78-4.63 3.384-4.712 3.585-6.645.16-1.53-3.424-3.22-5.477-4.63-2.014-1.45-4.55-1.933-5.437-1.973-.924-.04-2.133.16-1.972-.324 1.256-3.732-.907-4.614-1.77-4.797V2.23h-.365v-.364h-35.69c-1.54-.35-4.73-1.072-5.99-1.006-.883 0-2.803 1-3.454 1.006h-.07c-.35 0-1.41-.337-1.792-.644C33.413.74 32.89-.388 30.07.136c-1.085.192-1.925.852-2.444 1.73h-16.04v.364h-.363v19.894c-.986.092-1.55.343-1.69.484-.163.12-1.05.442-1.21 1.127-.564.484-.725 1.49-.363 1.853-.08.24-.362 1.49.725 1.852 1.088 1.692-.523 2.497-.523 2.497s-1.25.12-4.672 1.852c-7.652 3.824-.524 5.677.765 5.8 1.893.16 2.296.32 1.692 2.254-.645 1.933 0 4.67 0 4.67-1.53.04-1.732 1.653-1.692 2.78-.967 3.464 2.094 2.658 2.9 1.168 2.815 1.257 3.796-2.985 4.065-2.843v2.727c-.468.897-.965 1.646-.965 1.646-1.33 2.9-.202 1.732-.282 2.98-.11 1.2.086 1.968 1.247 2.315v16.65h.364v.404H23.31c.2.134.41.26.636.363 1.33.604 1.45.644 1.813.08.09-.142.136-.292.154-.443H80.97v-.403h.365V50.15c2.627-.058 1.742-.657 1.932-3.095.16-2.577.605-6.04.605-5.76.323 2.457 1.25 6.686.886 7.21-.362.48-.282.845-1.57 1.65-1.33.806-1.33 1.247-1.29 1.33.04.08-.2.805 1.45.845 1.652.04 3.585-1.13 3.746-1.17.604-.32 1.41-.16 1.73-1.206 0 0 .203-1.894 0-2.78.646-1.77.848-7.247.686-8.214 1.41-3.424 1.168-11.114 1.128-11.558 1.288-2.217 1.892-2.66 1.772-4.793zM25.155 70.532c-.144-.174-.227-.372-.08-.647.026-.054.053-.102.08-.154v.803zm.727-2.053c1.882-2.75 4.51-3.63 4.51-3.63 1.47-.49 6.314-2.134 8.457-2.636v9.4H25.882V68.48h-.002zm53.28-42.815c-.452 1.856-.686 3.098-.808 3.986h-6.526c1.562-1.256 2.952-2.52 3.225-2.937 1.772-.605 1.007-1.61.524-2.255-.524-.646-1.773-.565-2.498-.122-2.176.08-.525.885-.847 1.288-.644.644-3.463 1.973-4.47 2.7-.145.102-.277.183-.403.25v-11.63c3.448 1.455 9.173.813 9.988 1.434.846.605 2.457 4.632 1.813 7.29zm-.928 6.887c-.4 5.023 1.17 8.818 1.438 11.275h-12.31v-11.2c.73-.217 2.13-1.164 3.54-2.247h7.367c-.1 1.137.03 1.5-.037 2.173zm-62.46 6.282c-.122-2.255.523-3.503.846-3.786.28-.282 2.296-1.41 3.463-1.772 2.97-.873 4.63-2.016 5.073-2.384v9.076c-.197.05-.452-.047-.603-.047-1.37-.2-1.45.2-1.37.483.04.12.122.2-1.248.12-2.094-.08-1.41 1.41-.443 1.812 1.086.484 3.657.605 3.663.605v.885h-8.457c-.26-3.006-.862-3.772-.925-4.992zm12.483-18.202c.243-.604-.362-1.53.04-2.255.145-.315.976-1.298 1.518-1.972h6.06c.54.11 1.092.174 1.644.16.345-.006.66-.07.957-.16h.37v13.247h-11.45c.333-.233.606-.48.698-.723.323-.847.24-1.65-.362-1.694-1.29.685-.605.122-1.21.202-.32.227-.515.342-.643.4v-4.765c1.098-.913 2.214-2.092 2.377-2.442zM41.427 9.92c-.04-.403.443-1.248.724-1.812.244-.605 1.21-1.732 1.25-2.336.04-.08 1.41.12 1.813.12.442-.04 2.014-.16 2.818-.2.846 0 2.417.562 3.06.522.313-.017 1-.032 1.734-.027v9.49h-13.01c.918-.76 1.482-1.814 1.774-2.374.443-.967-.08-2.98-.16-3.383zm25.208 6.675v12.243c-.33.047-.555-.026-.684-.07-.28-.12-1.97-.846-2.212-.886-.282-.04-.202.202-2.215-.846-2.658-1.41-3.22-1.368-5.034-1.127-1.853.24-2.457.56-2.457-.203 0-.765 1.047-1.33 1.047-1.33 1.408-.483.803-1.368.682-1.61-.08-.28 0-.966-.362-1.57.725-.645-.685-1.29-.926-1.65-.102-.187-.302-1.207-.925-2.016v-1.125h12.753c.125.07.232.133.33.19zm-40.753 13.9c.08-.04.154-.073.243-.115h12.723v3.234c-1.693 1.156-2.576 1.988-4.47 3.166-2.095 1.33-5.557 2.74-7.29 3.26 0 0-.764.284-1.087.04-.04-.046-.077-.07-.12-.105v-9.48h.003zm13.693-.115h4.267c-1.512.983-3.206 2.05-4.267 2.75v-2.75zm13.248-13.512c-.597-.368-1.41-.512-2.538-.14-4.027 1.288-4.59 2.86-5.234 3.34-.643.484-1.046.888-1.207 1.45-.12.565.604 1.05-.04 2.216-.684 1.167 0 1.894.08 2.095.08.24.16 1.366.886 1.57 2.013.2 1.37.4 2.254.723-.2.244-1.018.825-2.075 1.53h-5.375V16.405H52.82v.462h.003zM25.883 42.91c.218-.327.766-.716 2.454-.65 4.554.146 8.53-2.613 10.51-3.683v5.253H25.883v-.92zm13.692-4.692c1.88-.88 5.99-3.118 6.844-2.846.845.24 3.18 4.35 2.94 5.114-.375 1.196-1.57 1.982-2.13 3.342h-7.656v-5.61zm7.42 6.338c-.988 3.706.417 3.416.028 5.516-.12.684-3.383 2.738-5.718 5.317-.566.632-1.15 1.09-1.73 1.43V44.556h7.42zm5.828 11.493v1.59h-1.775c.84-.64 1.406-1.218 1.775-1.59zm.727-.688c.72-.762 1.986-2.49 2.293-2.594.363-.08 1.008-.04 3.14.884 5.317 2.297 5.438 1.208 6.325 2.215.14.593.348 1.185.577 1.77H53.55V55.36zm13.085-6.38c-1.517-.992-4.436-3.097-6.21-4.427h6.21v4.426zm-7.163-5.155c-.205-.16-.36-.286-.448-.362-.16-.16.242-2.135.282-2.86.08-.723-.122-2.455.846-4.79 1.127-.726.846-2.337 1.167-3.142.713-.037 3.184.442 5.313.078v11.08H59.47v-.002zm1.566-30.283c-.28-.04-.926.2-.765.404.725.884 2.657.48 3.262.804.308.163.93.54 1.563.925H53.55V6.2c.726.024 1.39.074 1.65.177.603.242 3.182 1.65 3.543 1.45.363-.202-.362-.724-.28-.966.04-.24 2.254.244 2.536-.36.28-.605-1.613-1.41-2.257-1.61-.645-.204-2.214-.204-2.738-.324-.342-.08-1.42-.568-2.455-.922v-1.05h13.086v11.15c-1.878-.364-2.482-.836-2.818-1.003-.403-.2-1.33-1.33-3.625-1.33-.04 0-1.53.12-1.49.927 1.61.605 2.335 1.21 2.335 1.21zm-8.215-10.12c-.28-.075-.545-.134-.765-.15-.363-.04-2.578-.482-2.98-.563-.108-.01-.326-.055-.597-.12h4.344v.834zm-22.5 12.255c.15-.43.173-1.415.392-1.45.162-.024 1.325.777 2.893 1.45h-3.285zm-5.168-1.864c-.12.624-.25 1.254-.384 1.862H11.95V2.59h13.207v11.225zm-.55 2.588c-.42 1.812-.828 3.263-.9 3.382-.08.16-1.046 1.65-1.408 2.215-.363.524-.847.684-1.128 1.008-.324.28-.203.925.48 1.126.646.202 1.53-.604 1.773-.563.16 0 .04.646.482.646.278.023.735-.22 1.248-.58v4.746c-.166.387-.228.275-.805.506-.807.362-1.895.563-3.867.643-.567.037-1.16.08-1.734.12h-4.88c-.1-.08-.176-.18-.19-.32 1.288-1.49.643-1.65.884-2.336.243-.725.04-1.61.122-2.376.12-.725-.202-1.49-.323-1.57-.16-.04-.725-.363-1.167-.403-.345-.034-.702-.404-1.248-.516v-5.725h12.66zM13.92 54.864c.283-.565-1.207-1.895-.442-3.304.605-1.127 3.384-3.503 3.343-4.953-.005-.776-.03-1.45-.067-2.05h8.403V57.64H11.948v-2.21c1.302.16 1.712-.044 1.973-.566zm11.963-10.31H38.85v12.63c-.47.205-.93.348-1.38.456H25.88V44.557h.002zM34.44 58.37c-1.696.752-4.225 3.158-7.713 5.075-.294.16-.567.292-.845.43V58.37h8.557zm5.135 3.71c.01 0 .028-.004.04-.005 4.428-.404 4.026-1.29 5.717-1.734 1.977-.512 3.502-1.24 4.666-1.972h2.825v13.248H39.575V62.08zm13.975-3.71h12.628c.144.325.3.637.457.947v12.3H53.55v-13.25zm13.812 2.27c.927 1.553 1.87 2.744 2.295 3.126.806.684 2.497 2.74 2.537 4.51.07 1.498-.967 2.664 1.665 3.342h-6.497V60.64h-.002zM80.61 70.7c-.284-.26-.822-.568-1.852-.973-2.255-.846-3.263-2.338-4.148-3.907-.627-1.064-1.88-4.434-2.776-7.45h8.776V70.7zm-8.988-13.06c-.328-1.162-.59-2.238-.718-3.058-.495-2.932-1.894-4.098-3.543-5.137v-4.89h12.386c.16 1.94-.217 2.82-2.8 4.35-2.86 1.65.523 1.448.523 1.448s.16-.228 3.14-.203v7.49H71.62zm6.25-52.955c-1.49.846-.886 1.893-1.17 2.376-.28.444-.884.765-.884 1.33 0 .564.603.644.603.684.04.926.12 1.61.12 1.812 0 .725.888.644.767.846-.282.324-1.652.726-2.7 1.41-1.007.646-2.013 1.09-2.658 1.05-.685-.04-1.128.16-4.028-.243-.206-.026-.378-.055-.563-.083V2.592h13.25v1.543c-.653-.07-1.564-.067-2.737.55zm-50.783-.12c.24 2.053 2.012 3.26 2.82 3.342.844.12.804-.16 1.57-.322.765-.16.845.202 1.167.122.28-.122.08-.282.443-.403.363-.16 1.29-.16 1.53-.605.122-.203.644-.807.644-.807-.845 3.384-1.127 3.343-1.127 3.343-3.906-1.048-6.766-.847-7.45-.323-.413.275-.617.37-.806.97V2.59h1.413c-.212.616-.297 1.29-.202 1.973zm-15.14 67.05V58.367h13.205v5.863c-2.76 1.298-4.51 1.628-4.51 1.628-2.013.726-.965 2.013-.403 2.254 0 .162 1.007 2.054 1.25 2.376.13.197.456.654.933 1.127H11.95z" fill="#FFF" fill-rule="evenodd"/></svg>