<svg xmlns="http://www.w3.org/2000/svg" width="184" height="48" viewBox="0 0 184 48"><g fill="none" fill-rule="evenodd"><path fill="#FFF" d="M8 18.006C8 16.898 8.9 16 9.99 16h24.02c1.098 0 1.99.897 1.99 2.006v9.988C36 29.102 35.1 30 34.01 30H9.99C8.893 30 8 29.103 8 27.994v-9.988z"/><path fill="#FF5D47" d="M22.59 21.894C22.187 21.374 22 21 22 21s-.187.375-.59.894c0 0-.48.576-.717.808C19.59 23.792 17.75 25 15 25c-5 0-7-4-7-4v-3.002C8 16.894 8.9 16 9.99 16h24.02c1.098 0 1.99.898 1.99 1.998V21s-2 4-7 4c-2.75 0-4.59-1.21-5.693-2.298l-.717-.808z"/><path fill="#FFF" d="M10 22l-.21-.894c.018.037.095.17.233.363.248.35.558.704.93 1.035C12.012 23.445 13.33 24 15 24s2.99-.555 4.046-1.495c.373-.33.683-.686.93-1.036.14-.195.216-.327.235-.364.738-1.475 2.842-1.475 3.58 0 .018.037.095.17.233.363.248.35.558.704.93 1.035C26.012 23.445 27.33 24 29 24s2.99-.555 4.046-1.495c.373-.33.683-.686.93-1.036.14-.195.216-.327.235-.364L34 22v-4.002L9.99 18c.012 0 .01 4 .01 4zm12.59.894C22.187 22.374 22 22 22 22s-.187.375-.59.894c0 0-.48.576-.717.808C19.59 24.792 17.75 26 15 26c-5 0-7-4-7-4v-4.002C8 16.894 8.9 16 9.99 16h24.02c1.098 0 1.99.898 1.99 1.998V22s-2 4-7 4c-2.75 0-4.59-1.21-5.693-2.298l-.717-.808zM0 29.99C0 28.89.9 28 2.005 28h39.99c1.107 0 2.005.898 2.005 1.99v16.02c0 1.1-.9 1.99-2.005 1.99H2.005C.898 48 0 47.102 0 46.01V29.99z"/><path fill="#FF5D47" d="M15.683 38.012C15.216 37.432 15 37 15 37s-.25.398-.747.944c0 0-.417.397-.64.64C12.387 39.7 10.35 41 7.5 41c-5 0-7.5-4-7.5-4v-7c0-1.105.9-2 2.005-2h39.99c1.107 0 2.005.887 2.005 2v7s-2.5 4-7.5 4c-2.85 0-4.887-1.3-6.113-2.417-.218-.225-.64-.64-.64-.64C29.25 37.4 29 37 29 37s-.216.432-.683 1.012c0 0-.372.433-.588.654C26.63 39.764 24.78 41 22 41c-2.78 0-4.632-1.236-5.73-2.334l-.587-.654z"/><path fill="#FFF" d="M2 30v8l-.304-1.06c.032.05.136.197.31.405.308.37.682.744 1.118 1.093C4.354 39.42 5.8 40 7.5 40c1.7 0 3.147-.58 4.376-1.562.436-.35.81-.723 1.12-1.093.172-.208.276-.354.308-.405.828-1.324 2.786-1.23 3.485.166.018.037.095.17.233.363.248.35.558.704.93 1.035C19.012 39.445 20.33 40 22 40s2.99-.555 4.046-1.495c.373-.33.683-.686.93-1.036.14-.195.216-.327.235-.364.7-1.397 2.658-1.49 3.486-.166.032.05.136.197.31.405.308.37.682.744 1.118 1.093C33.354 39.42 34.8 40 36.5 40c1.7 0 3.147-.58 4.376-1.562.436-.35.81-.723 1.12-1.093.172-.208.276-.354.308-.405L42 38v-8c0-.003.003 0-.005 0H2.005C2.002 30 2 30.002 2 30zm13.683 9.012C15.216 38.432 15 38 15 38s-.25.398-.747.944c0 0-.417.397-.64.64C12.387 40.7 10.35 42 7.5 42c-5 0-7.5-4-7.5-4v-8c0-1.105.9-2 2.005-2h39.99c1.107 0 2.005.887 2.005 2v8s-2.5 4-7.5 4c-2.85 0-4.887-1.3-6.113-2.417-.218-.225-.64-.64-.64-.64C29.25 38.4 29 38 29 38s-.216.432-.683 1.012c0 0-.372.433-.588.654C26.63 40.764 24.78 42 22 42c-2.78 0-4.632-1.236-5.73-2.334l-.587-.654zM13 8h4v9h-4V8zm7 0h4v9h-4V8zm7 0h4v9h-4V8z"/><path fill="#FFF" d="M15 10c-1.657 0-3-1.343-3-3s2-7 3-7 3 5.343 3 7-1.343 3-3 3zm14 0c-1.657 0-3-1.343-3-3s2-7 3-7 3 5.343 3 7-1.343 3-3 3zm-7 0c-1.657 0-3-1.343-3-3s2-7 3-7 3 5.343 3 7-1.343 3-3 3zm-7-2c.552 0 1-.448 1-1 0-.475-.42-1.99-.98-3.37-.285-.708-.58-1.315-.827-1.712-.093-.15-.165-.245-.186-.266.184.183.475.348.993.348s.81-.165.993-.348c-.02.02-.093.116-.186.266-.247.397-.542 1.004-.828 1.712C14.42 5.01 14 6.525 14 7c0 .552.448 1 1 1zm7 0c.552 0 1-.448 1-1 0-.475-.42-1.99-.98-3.37-.285-.708-.58-1.315-.827-1.712-.093-.15-.165-.245-.186-.266.184.183.475.348.993.348s.81-.165.993-.348c-.02.02-.093.116-.186.266-.247.397-.542 1.004-.828 1.712C21.42 5.01 21 6.525 21 7c0 .552.448 1 1 1zm7 0c.552 0 1-.448 1-1 0-.475-.42-1.99-.98-3.37-.285-.708-.58-1.315-.827-1.712-.093-.15-.165-.245-.186-.266.184.183.475.348.993.348s.81-.165.993-.348c-.02.02-.093.116-.186.266-.247.397-.542 1.004-.828 1.712C28.42 5.01 28 6.525 28 7c0 .552.448 1 1 1zm33.88 6.008h6.24c1.067 0 2.043.096 2.928.288.885.192 1.643.49 2.272.896.63.405 1.12.933 1.472 1.584.352.65.528 1.435.528 2.352 0 1.045-.3 1.99-.896 2.832-.597.843-1.515 1.424-2.752 1.744v.128c1.536.235 2.73.768 3.584 1.6.853.832 1.28 1.973 1.28 3.424 0 1.024-.192 1.92-.576 2.688-.384.768-.928 1.408-1.632 1.92-.704.512-1.547.896-2.528 1.152-.98.256-2.06.384-3.232.384H62.88V14.008zm5.76 8.96c1.813 0 3.11-.31 3.888-.928.78-.62 1.168-1.515 1.168-2.688 0-1.152-.41-1.98-1.232-2.48-.82-.5-2.053-.752-3.696-.752h-3.232v6.848h3.104zm.544 9.92c1.813 0 3.22-.336 4.224-1.008 1.003-.672 1.504-1.723 1.504-3.152 0-1.3-.49-2.256-1.472-2.864-.98-.608-2.4-.912-4.256-.912h-3.648v7.936h3.648zm13.1-16.64c-.512 0-.944-.16-1.296-.48-.352-.32-.528-.725-.528-1.216 0-.512.176-.923.528-1.232.352-.31.784-.464 1.296-.464s.944.155 1.296.464c.352.31.528.72.528 1.232 0 .49-.176.896-.528 1.216-.352.32-.784.48-1.296.48zm-1.344 3.2h2.624V35H80.94V19.448zm7.372 0h2.176l.224 2.816h.096c.533-.98 1.18-1.76 1.936-2.336.757-.576 1.584-.864 2.48-.864.62 0 1.173.107 1.664.32l-.512 2.304c-.256-.085-.49-.15-.704-.192-.213-.043-.48-.064-.8-.064-.66 0-1.35.267-2.064.8-.715.533-1.34 1.46-1.872 2.784V35h-2.624V19.448zm11.052 2.144H97.06v-1.984l2.432-.16.32-4.352h2.208v4.352h4.192v2.144h-4.192v8.64c0 .96.176 1.7.528 2.224.352.523.976.784 1.872.784.277 0 .576-.043.896-.128.32-.085.608-.18.864-.288l.512 1.984c-.427.15-.89.283-1.392.4-.5.117-.997.176-1.488.176-.832 0-1.53-.128-2.096-.384-.565-.256-1.024-.608-1.376-1.056-.352-.448-.603-.992-.752-1.632-.15-.64-.224-1.344-.224-2.112v-8.608zm9.868-9.376h2.624v6.208l-.096 3.2c.747-.704 1.525-1.307 2.336-1.808.81-.5 1.76-.752 2.848-.752 1.643 0 2.843.512 3.6 1.536.757 1.024 1.136 2.54 1.136 4.544V35h-2.624v-9.504c0-1.472-.235-2.533-.704-3.184-.47-.65-1.216-.976-2.24-.976-.81 0-1.525.203-2.144.608-.62.405-1.323 1.003-2.112 1.792V35h-2.624V12.216zm15.788 15.04c0-1.26.187-2.395.56-3.408.373-1.013.87-1.872 1.488-2.576.62-.704 1.333-1.248 2.144-1.632.81-.384 1.664-.576 2.56-.576.896 0 1.675.16 2.336.48.66.32 1.333.757 2.016 1.312l-.128-2.656v-5.984h2.656V35h-2.176l-.224-1.824h-.096c-.62.597-1.328 1.115-2.128 1.552-.8.437-1.66.656-2.576.656-1.963 0-3.525-.704-4.688-2.112-1.163-1.408-1.744-3.413-1.744-6.016zm2.72-.032c0 1.877.373 3.34 1.12 4.384.747 1.045 1.803 1.568 3.168 1.568.725 0 1.408-.176 2.048-.528.64-.352 1.28-.89 1.92-1.616v-8.128c-.66-.597-1.296-1.02-1.904-1.264-.608-.245-1.232-.368-1.872-.368-.62 0-1.2.144-1.744.432-.544.288-1.02.693-1.424 1.216-.405.523-.725 1.147-.96 1.872-.235.725-.352 1.536-.352 2.432zm14.892 3.744c0-1.707.763-3.013 2.288-3.92s3.952-1.54 7.28-1.904c0-.49-.048-.97-.144-1.44-.096-.47-.267-.885-.512-1.248s-.57-.656-.976-.88c-.405-.224-.928-.336-1.568-.336-.917 0-1.765.17-2.544.512-.78.34-1.477.725-2.096 1.152l-1.056-1.824c.725-.47 1.61-.923 2.656-1.36 1.045-.437 2.197-.656 3.456-.656 1.9 0 3.275.58 4.128 1.744.853 1.163 1.28 2.715 1.28 4.656V35h-2.176l-.224-1.856h-.064c-.747.62-1.552 1.147-2.416 1.584-.864.437-1.776.656-2.736.656-1.323 0-2.416-.384-3.28-1.152-.864-.768-1.296-1.856-1.296-3.264zm2.592-.192c0 .896.26 1.536.784 1.92.523.384 1.168.576 1.936.576.747 0 1.456-.176 2.128-.528.672-.352 1.38-.87 2.128-1.552v-4.32c-1.3.17-2.4.373-3.296.608-.896.235-1.616.512-2.16.832-.544.32-.933.688-1.168 1.104-.235.416-.352.87-.352 1.36zm13.004 8.512l.576.144c.213.053.416.08.608.08.896 0 1.627-.315 2.192-.944.565-.63 1.008-1.424 1.328-2.384l.352-1.152-6.24-15.584h2.72l3.168 8.608c.235.683.485 1.403.752 2.16.267.757.517 1.5.752 2.224h.128c.235-.704.46-1.44.672-2.208.213-.768.427-1.493.64-2.176l2.784-8.608h2.56l-5.856 16.832c-.277.768-.587 1.483-.928 2.144-.34.66-.747 1.232-1.216 1.712-.47.48-1.003.86-1.6 1.136-.597.277-1.29.416-2.08.416-.363 0-.693-.027-.992-.08-.3-.053-.576-.133-.832-.24l.512-2.08zm15.084-7.808c.683.555 1.38 1.003 2.096 1.344.715.34 1.54.512 2.48.512 1.024 0 1.792-.235 2.304-.704.512-.47.768-1.045.768-1.728 0-.405-.107-.757-.32-1.056-.213-.3-.485-.56-.816-.784-.33-.224-.71-.42-1.136-.592-.427-.17-.853-.34-1.28-.512-.555-.192-1.11-.41-1.664-.656-.555-.245-1.05-.544-1.488-.896-.437-.352-.795-.763-1.072-1.232-.277-.47-.416-1.035-.416-1.696 0-.62.123-1.2.368-1.744s.597-1.013 1.056-1.408c.46-.395 1.02-.704 1.68-.928.66-.224 1.408-.336 2.24-.336.98 0 1.883.17 2.704.512.82.34 1.53.757 2.128 1.248l-1.248 1.664c-.533-.405-1.088-.736-1.664-.992-.576-.256-1.205-.384-1.888-.384-.98 0-1.7.224-2.16.672-.46.448-.688.97-.688 1.568 0 .363.096.677.288.944.192.267.448.5.768.704.32.203.688.384 1.104.544l1.296.496c.555.213 1.115.437 1.68.672.565.235 1.072.528 1.52.88.448.352.816.784 1.104 1.296.288.512.432 1.13.432 1.856 0 .64-.123 1.237-.368 1.792-.245.555-.608 1.045-1.088 1.472-.48.427-1.077.763-1.792 1.008-.715.245-1.53.368-2.448.368-1.11 0-2.165-.203-3.168-.608-1.003-.405-1.877-.917-2.624-1.536l1.312-1.76z"/></g></svg>