<svg xmlns="http://www.w3.org/2000/svg" width="48" height="42" viewBox="0 0 48 42"><g fill="#FFF" fill-rule="evenodd"><path d="M26.812 25.182c-.914-.326-1.858-.664-2.812-1.018v-3.728c.972-.65 2.762-2.316 2.98-5.856.732-.46 1.194-1.452 1.194-2.722 0-1.116-.358-2.018-.942-2.532.486-1.27 1.29-3.498.738-5.708C27.308.948 23.532 0 20.5 0c-2.684 0-5.952.744-7.126 2.768-1.4-.08-2.178.52-2.554 1.022-1.038 1.38-.554 3.546.004 5.49-.232.19-.432.44-.592.74-.262.502-.406 1.156-.406 1.838 0 1.27.46 2.264 1.196 2.722.218 3.54 2.006 5.206 2.978 5.856v3.73c-.846.314-1.714.626-2.574.934C6.272 26.946 1.82 28.54.998 31.02.012 33.994 0 40.58 0 40.858c0 .552.448 1 1 1h36c.552 0 1-.448 1-1 0-.278-.01-6.864-.998-9.84-.824-2.482-4.956-3.96-10.19-5.836"/><path d="M47.002 31.018c-.776-2.338-4.558-4.626-13.002-7.85v-1.732c.972-.65 2.762-2.316 2.978-5.856.734-.46 1.194-1.452 1.194-2.722 0-1.128-.362-2.038-.96-2.55.482-1.368 1.316-3.82.758-6.06-.358-1.438-1.918-2.984-3.712-3.678-1.684-.654-3.392-.49-4.812.456-.46.306-.584.928-.278 1.386.306.46.926.584 1.386.278 1.106-.736 2.234-.546 2.982-.256 1.388.538 2.34 1.68 2.494 2.296.424 1.712-.33 3.854-.736 5.006-.196.558-.294.836-.294 1.122 0 .552.362.974.914.974.07.056.258.402.258 1.026s-.188.972-.172 1c-.552 0-1 .448-1 1 0 3.972-2.296 5.036-2.382 5.076-.374.154-.618.52-.618.924v3c0 .416.258.788.648.936 2.878 1.086 11.636 4.386 12.454 6.854.676 2.034.842 6.276.884 8.21H43c-.552 0-1 .448-1 1s.448 1 1 1h4c.552 0 1-.448 1-1 0-.278-.01-6.864-.998-9.84"/></g></svg>