<svg width="600" height="102" viewBox="0 0 600 102" xmlns="http://www.w3.org/2000/svg" xmlns:xlink="http://www.w3.org/1999/xlink"><title>digital_ocean</title><defs><path id="a" d="M101.123 101.94H0V.878h101.123V101.94z"/></defs><g fill="none" fill-rule="evenodd"><mask id="b" fill="#fff"><use xlink:href="#a"/></mask><path d="M50.56 102V82.418c20.782 0 36.85-20.568 28.917-42.414-2.94-8.092-9.394-14.546-17.486-17.483-21.842-7.924-42.404 8.14-42.407 28.916 0 0-.002.005-.005.005H0C0 18.334 31.984-7.444 66.676 3.386c15.16 4.733 27.207 16.78 31.94 31.94C109.446 70.017 83.668 102 50.56 102" fill="#FFF" mask="url(#b)"/><path d="M50.606 82.468H31.082V62.95s.002-.003.004-.003h19.517c.002 0 .003.002.003.002v19.517M31.08 97.47H16.082l-.004-.005V82.468H31.08v14.997l-.003.004M16.09 82.467H3.52c-.006 0-.01-.004-.01-.004V69.9s.004-.01.01-.01h12.56c.006 0 .01.004.01.004v12.574M150.98 33.89h5.75c6.4 0 11.67 1.26 15.664 3.746 4.435 2.674 6.685 7.762 6.685 15.12 0 7.582-2.257 12.9-6.7 15.808h-.005c-3.827 2.53-9.063 3.815-15.565 3.815h-5.83V33.89zm29.036-3.775c-5.79-4.017-12.995-6.053-21.414-6.053h-18.327v58.146h18.327c8.398 0 15.606-2.15 21.42-6.386 3.165-2.245 5.65-5.383 7.39-9.324 1.732-3.92 2.61-8.543 2.61-13.74 0-5.138-.878-9.702-2.61-13.567-1.74-3.88-4.228-6.934-7.396-9.074zm22.764-6.77c-1.762 0-3.28.626-4.502 1.85-1.237 1.177-1.865 2.67-1.865 4.437 0 1.762.625 3.28 1.856 4.51 1.23 1.232 2.747 1.858 4.51 1.858 1.76 0 3.276-.626 4.51-1.857 1.232-1.234 1.856-2.75 1.856-4.51 0-1.765-.628-3.258-1.857-4.43-1.234-1.232-2.75-1.857-4.51-1.857m-5.252 58.862h10.304V41.255h-10.304m45.026 27.608c-1.8 2.045-4.114 3.037-7.07 3.037-2.954 0-5.254-.992-7.028-3.035-1.767-2.032-2.664-4.727-2.664-8.01 0-3.334.897-6.063 2.665-8.11 1.75-2.026 4.115-3.054 7.028-3.054 2.953 0 5.266 1 7.068 3.06 1.794 2.047 2.704 4.774 2.704 8.106 0 3.28-.91 5.975-2.703 8.008zm2.703-24.187c-3.107-2.764-6.578-4.377-10.33-4.377-5.688 0-10.416 1.967-14.05 5.844-3.682 3.845-5.55 8.795-5.55 14.71 0 5.782 1.84 10.715 5.47 14.67 3.663 3.827 8.416 5.767 14.13 5.767 3.973 0 7.39-1.105 10.17-3.29v.943c0 3.398-.91 6.04-2.703 7.857-1.792 1.814-4.277 2.732-7.386 2.732-4.757 0-7.738-1.87-11.368-6.775l-7.017 6.743.19.265c1.515 2.128 3.836 4.21 6.9 6.188 3.066 1.97 6.92 2.97 11.454 2.97 6.117 0 11.067-1.885 14.71-5.603 3.666-3.738 5.525-8.744 5.525-14.873V41.255h-10.145v3.42zm18.963 37.532h10.306V41.255H264.22m5.253-17.91c-1.762 0-3.28.626-4.502 1.85-1.235 1.177-1.862 2.67-1.862 4.437 0 1.762.624 3.28 1.856 4.51 1.23 1.232 2.748 1.858 4.51 1.858 1.76 0 3.278-.626 4.51-1.857 1.233-1.234 1.857-2.75 1.857-4.51 0-1.765-.626-3.258-1.856-4.43-1.232-1.232-2.75-1.857-4.51-1.857m27.64 6.844h-10.146v11.065h-5.89v9.392h5.89v17.01c0 5.324 1.063 9.133 3.162 11.32 2.104 2.197 5.84 3.31 11.104 3.31 1.674 0 3.36-.054 5.007-.162l.466-.03V72.71l-3.534.183c-2.452 0-4.09-.43-4.87-1.28-.787-.86-1.187-2.685-1.187-5.417v-15.55h9.592v-9.392h-9.592V30.19m57.91 52.018h10.305V24.062h-10.306M469.44 67.564c-1.844 2.066-3.73 3.857-5.182 4.788v.002c-1.425.914-3.223 1.378-5.344 1.378-3.036 0-5.478-1.106-7.467-3.384-1.978-2.265-2.98-5.176-2.98-8.657 0-3.48.99-6.386 2.942-8.635 1.96-2.263 4.39-3.363 7.423-3.363 3.32 0 6.82 2.065 9.818 5.61l6.81-6.53c-4.44-5.78-10.104-8.47-16.865-8.47-5.658 0-10.563 2.06-14.577 6.123-3.994 4.034-6.02 9.17-6.02 15.268 0 6.098 2.024 11.248 6.013 15.308 3.994 4.066 8.9 6.127 14.584 6.127 7.462 0 13.483-3.22 17.543-9.122l-6.7-6.438m19.773-10.95c.497-1.957 1.4-3.59 2.692-4.856 1.397-1.372 3.214-2.07 5.403-2.07 2.498 0 4.43.71 5.747 2.117 1.22 1.3 1.907 2.918 2.05 4.812h-15.89zm22.525-9.64c-1.462-2.037-3.452-3.676-5.918-4.874-2.458-1.197-5.323-1.804-8.515-1.804-5.752 0-10.46 2.12-13.993 6.31-3.433 4.157-5.17 9.324-5.17 15.36 0 6.205 1.907 11.342 5.67 15.266 3.74 3.906 8.75 5.887 14.884 5.887 6.95 0 12.652-2.81 16.95-8.354l.23-.3-6.722-6.46c-.624.75-1.506 1.604-2.312 2.364-1.017.96-1.973 1.703-2.995 2.212-1.54.767-3.268 1.145-5.2 1.145-2.856 0-5.22-.84-7.028-2.496-1.69-1.55-2.68-3.64-2.94-6.22h27.3l.093-3.76c0-2.663-.362-5.228-1.077-7.625-.715-2.403-1.812-4.64-3.258-6.655zm21.278 19.58c1.17-.814 2.82-1.224 4.91-1.224 2.48 0 5.11.497 7.822 1.48v4.018c-2.24 2.084-5.23 3.14-8.895 3.14-1.784 0-3.17-.396-4.124-1.18-.936-.767-1.39-1.743-1.39-2.98 0-1.404.548-2.47 1.677-3.25zm18.297-22.24c-3.124-2.664-7.44-4.02-12.83-4.02-3.43 0-6.636.756-9.537 2.226-2.683 1.36-5.318 3.614-6.992 6.564l.106.126 6.6 6.317c2.717-4.334 5.74-5.84 9.746-5.84 2.154 0 3.942.58 5.315 1.718 1.366 1.13 2.03 2.57 2.03 4.393v1.99c-2.555-.777-5.103-1.17-7.583-1.17-5.128 0-9.3 1.206-12.4 3.584-3.14 2.41-4.732 5.856-4.732 10.244 0 3.848 1.342 6.974 3.998 9.297 2.678 2.24 6.026 3.38 9.95 3.38 3.923 0 7.594-1.58 10.926-4.288v3.372h10.147V55.88c0-4.984-1.594-8.873-4.74-11.56zm44.384.803c-2.87-3.197-6.904-4.82-11.99-4.82-4.088 0-7.408 1.173-9.892 3.49v-2.535h-10.106v40.953h10.305V59.622c0-3.103.74-5.567 2.197-7.325 1.452-1.754 3.45-2.606 6.105-2.606 2.335 0 4.105.764 5.41 2.33 1.31 1.574 1.975 3.74 1.975 6.45v23.74H600V58.47c0-5.673-1.448-10.16-4.306-13.348M323.776 66.558c1.17-.815 2.82-1.225 4.91-1.225 2.48 0 5.11.497 7.823 1.48v4.018c-2.24 2.084-5.234 3.14-8.898 3.14-1.784 0-3.17-.396-4.123-1.18-.937-.767-1.39-1.743-1.39-2.98 0-1.404.547-2.47 1.675-3.25zm18.297-22.24c-3.124-2.665-7.44-4.02-12.83-4.02-3.43 0-6.635.755-9.536 2.225-2.684 1.36-5.32 3.614-6.992 6.564l.103.126 6.6 6.317c2.717-4.334 5.74-5.84 9.746-5.84 2.153 0 3.94.58 5.314 1.718 1.366 1.13 2.03 2.57 2.03 4.393v1.99c-2.555-.777-5.103-1.17-7.583-1.17-5.128 0-9.3 1.206-12.4 3.584-3.14 2.41-4.732 5.856-4.732 10.244 0 3.848 1.342 6.974 4 9.297 2.677 2.24 6.024 3.38 9.95 3.38 3.922 0 7.592-1.58 10.924-4.288v3.372h10.147V55.88c0-4.984-1.594-8.873-4.74-11.56zm60.647-10.62c-10.703 0-19.41 8.707-19.41 19.41 0 10.705 8.707 19.412 19.41 19.412s19.41-8.707 19.41-19.41c0-10.705-8.707-19.412-19.41-19.412zm0 49.385c-16.53 0-29.975-13.446-29.975-29.974 0-16.53 13.446-29.977 29.975-29.977 16.528 0 29.974 13.446 29.974 29.975 0 16.527-13.446 29.973-29.974 29.973z" fill="#FFF"/></g></svg>