<svg xmlns="http://www.w3.org/2000/svg" width="703" height="241" viewBox="0 0 703 241">
  <defs>
    <linearGradient id="a" x1="50%" x2="50%" y1="98.272%" y2="5.651%">
      <stop stop-color="#FFFFFF" stop-opacity="0" offset="0%"/>
      <stop stop-color="#FFFFFF" offset="100%"/>
    </linearGradient>
  </defs>
  <g fill="none" fill-rule="evenodd" transform="translate(-4)">
    <path fill="url(#a)" d="M709.153,109.737 C616.787,42.189 492.07,0.761 354.81,0.761 C217.56,0.761 92.861,42.19 0.492,109.737 L709.153,109.737 Z"/>
    <path fill="#FFFFFF" d="M303.193 129.017C296.58 129.017 293.185 134.402 292.301 140.976 291.339 148.231 287.53 173.418 286.685 179.821 286.178 183.647 285.894 187.651 282.19 189.303 278.484 190.949 273.962 188.425 270.126 185.14 266.27 181.857 209.286 133.225 209.286 133.225 206.01 130.357 201.896 129.016 197.974 129.016 189.371 129.016 181.104 134.368 181.104 147.452L181.104 228.551C181.104 234.867 185.547 238.912 190.861 238.912 196.728 238.912 200.525 235.014 201.357 229.298 201.357 229.298 207.626 190.651 208.396 186.344 209.286 181.328 210.071 177.397 214.889 175.904 219.261 174.541 223.387 177.078 229.545 182.478 235.61 187.783 286.922 234.234 286.922 234.234 290.851 237.564 293.712 238.898 299.27 238.898 304.313 238.898 313.47 236.837 313.47 221.397L313.47 140.613C313.471 133.114 308.835 129.017 303.193 129.017zM670.283 215.436C625.576 225.083 574.408 214.776 574.408 183.074 574.408 159.108 596.578 149.362 614.039 147.949 632.366 146.481 646.695 150.34 654.066 158.011 658.669 162.801 657.395 169.336 648.343 169.871 640.021 170.379 624.401 170.862 611.389 171.358 604.019 171.634 600.063 175.593 600.063 180.918 600.063 185.135 603.24 189.979 611.732 190.018 623.903 190.084 654.82 190.268 670.164 190.309 680.291 190.334 685.289 184.652 685.289 172.971 685.289 154.47 668.549 126.382 619.585 126.382 575.224 126.382 543.119 148.529 543.119 184.732 543.119 236.079 618.51 251.745 673.74 232.664 678.981 230.865 683.727 227.099 682.203 221.232 680.877 216.03 676.641 214.055 670.283 215.436zM151.52 215.436C106.804 225.083 55.642 214.776 55.642 183.074 55.642 159.108 77.806 149.362 95.276 147.949 113.594 146.481 127.92 150.34 135.303 158.011 139.911 162.801 138.626 169.336 129.586 169.871 121.255 170.379 105.625 170.862 92.624 171.358 85.241 171.634 81.3 175.593 81.3 180.918 81.3 185.135 84.464 189.979 92.954 190.018 105.131 190.084 136.055 190.268 151.394 190.309 161.513 190.334 166.517 184.652 166.517 172.971 166.517 154.47 149.779 126.382 100.813 126.382 56.459 126.382 24.355 148.529 24.355 184.732 24.355 236.079 99.744 251.745 154.974 232.664 160.206 230.865 164.953 227.099 163.437 221.232 162.106 216.03 157.875 214.055 151.52 215.436zM497.859 166.078C498.836 194.06 501.472 217.286 502.202 225.413 503.158 235.919 508.572 238.913 514.014 238.913 519.222 238.913 524.755 236.177 525.715 225.513 526.523 216.533 529.172 188.841 530.461 161.447 530.527 160.02 529.534 159.413 528.405 159.617L499.301 164.342C498.444 164.525 497.818 165.233 497.859 166.078zM514.097 126.381C500.732 126.381 496.842 136.874 497.003 143.302 497.027 144.491 497.155 147.801 497.345 151.919 497.377 152.85 498.214 153.73 499.335 153.589L529.713 148.648C530.681 148.45 531.142 147.742 531.188 146.976 531.262 145.543 531.307 144.069 531.32 143.382 531.5 137.177 527.524 126.381 514.097 126.381zM469.447 171.021C459.315 171.021 428.072 171.265 408.064 171.313 398.37 171.346 395.943 176.558 395.943 180.885 395.943 184.645 398.539 189.508 407.59 189.979 421.389 190.712 438.924 191.532 447.02 191.94 457.935 192.502 458.075 198.125 454.391 202.936 446.992 212.589 428.978 218.912 410.293 218.912 385.869 218.912 359.001 204.99 359.001 182.909 359.001 162.207 381.992 139.391 450.341 149.019 456.34 149.866 462.261 148.788 463.736 143.211 465.306 137.291 461.462 133.485 453.704 131.43 438.221 127.347 424.104 126.383 410.603 126.383 364.618 126.383 327.734 148.398 327.734 183.959 327.734 221.919 364.486 240.501 410.29 240.501 461.445 240.501 486.36 212.591 486.36 188.189 486.36 175.764 480.061 171.021 469.447 171.021z"/>
  </g>
</svg>
