<svg width="120" height="45" viewBox="0 0 120 45" xmlns="http://www.w3.org/2000/svg"><title>Free</title><path d="M35.39 0c-3.27.004-6.8 1.073-9.106 2.144v-.007c-3.862 1.764-6.38 3.586-8.26 5.59-1.803 1.926-3.01 4.003-4.28 6.31h-6.98c-.203 0-.386.116-.478.296l-.914 1.787c-.085.167-.077.365.02.525.098.16.277.255.464.255h6.612L.05 43.3c-.094.202-.053.445.1.606l.25.255c.122.13.296.19.47.164l5.067-.787c.168-.026.318-.13.396-.282L20.035 16.9h8.715c.195 0 .375-.105.47-.276l.995-1.787c.093-.166.09-.367-.007-.53-.096-.165-.273-.27-.464-.27H21.48l2.526-5.2.007-.007c.576-1.24 1.215-2.526 2.27-3.488.53-.482 1.16-.89 1.963-1.183.803-.294 1.784-.47 2.997-.47.872-.003 1.74.203 2.607.42.867.217 1.727.45 2.614.45.463 0 .887-.117 1.243-.3.536-.28.93-.694 1.196-1.11.134-.21.237-.415.31-.62.07-.2.112-.4.114-.602 0-.207-.045-.407-.128-.586-.15-.315-.4-.542-.674-.712-.416-.255-.913-.4-1.45-.498C36.536.04 35.958 0 35.388 0zm44.375 11.255c-6.13.003-12.187 1.922-16.745 4.724-2.28 1.4-4.185 3.03-5.537 4.77-1.35 1.737-2.15 3.597-2.15 5.47 0 .797.18 1.613.584 2.37.606 1.14 1.71 2.14 3.367 2.837 1.66.7 3.88 1.108 6.793 1.108 7.424 0 13.58-2.48 19.098-5.63.163-.094.27-.27.275-.458.004-.188-.095-.37-.255-.47l-1.163-.726c-.158-.1-.357-.11-.524-.026-4.684 2.335-9.508 3.933-14.198 3.93-1.897.003-3.533-.29-4.637-.798-.553-.253-.972-.554-1.236-.88-.264-.33-.387-.67-.39-1.082 0-.96.125-1.856.49-2.782 4.436-.23 10.45-.837 15.456-2.103 2.567-.653 4.866-1.473 6.57-2.535.853-.532 1.565-1.127 2.07-1.814.507-.684.802-1.48.8-2.33.002-.38-.088-.74-.255-1.056-.293-.557-.79-.968-1.377-1.29-.885-.482-2.02-.778-3.244-.968-1.226-.187-2.542-.26-3.79-.262zm31.536 0c-6.127.003-12.18 1.922-16.737 4.724-2.28 1.4-4.185 3.03-5.537 4.77-1.35 1.737-2.155 3.597-2.157 5.47 0 .797.18 1.613.584 2.37.605 1.14 1.708 2.14 3.366 2.837 1.66.7 3.88 1.108 6.793 1.108 7.425 0 13.578-2.48 19.097-5.63.164-.094.27-.27.275-.458.004-.188-.095-.37-.255-.47l-1.163-.726c-.158-.1-.356-.11-.524-.026-4.687 2.335-9.51 3.933-14.198 3.93-1.896.003-3.532-.29-4.637-.798-.553-.253-.965-.554-1.23-.88-.263-.33-.393-.67-.396-1.082 0-.96.126-1.855.49-2.782 4.437-.23 10.448-.836 15.456-2.103 2.567-.653 4.867-1.473 6.572-2.535.85-.532 1.563-1.127 2.07-1.814.505-.684.8-1.48.8-2.33 0-.38-.09-.74-.256-1.056-.293-.557-.79-.968-1.378-1.29-.887-.482-2.02-.778-3.246-.968-1.224-.187-2.544-.26-3.79-.262zm-68.01.51c-1.105.002-2.314.28-3.552.707-1.857.64-3.78 1.62-5.443 2.593-1.663.976-3.057 1.942-3.857 2.554-.138.102-.214.27-.21.44.007.174.093.335.236.43l1.082.727c.178.12.412.123.592.007.65-.42 1.814-1.126 3.077-1.72.632-.298 1.287-.568 1.91-.76.62-.192 1.206-.303 1.685-.302.434 0 .693.12.846.25.154.126.198.274.195.32.003.082-.02.24-.072.424-.157.56-.555 1.35-.847 1.828l-.006.014-6.538 11.785c-.043.067-.097.148-.148.255-.05.106-.1.245-.1.424 0 .116.032.224.074.31.082.16.184.252.283.328.174.128.362.21.578.29.322.115.698.208 1.09.274.39.066.797.108 1.168.108.755 0 1.466-.01 2.037-.06.288-.027.537-.062.76-.122.112-.03.22-.07.33-.127.106-.06.23-.14.328-.31l.007-.006 1.49-2.736c1.36-2.165 3.496-5.293 5.975-7.86 1.242-1.29 2.566-2.434 3.91-3.247 1.345-.814 2.7-1.29 4-1.29.936-.002 2.013.166 3.07.168.718 0 1.34-.15 1.86-.41.786-.385 1.33-.987 1.667-1.59.17-.304.29-.608.37-.895.08-.287.12-.56.12-.806.002-.315-.07-.624-.228-.895-.117-.203-.28-.382-.47-.524-.287-.212-.636-.35-1.035-.443-.4-.09-.85-.134-1.37-.134-1.437.003-2.97.51-4.516 1.27-2.316 1.144-4.665 2.882-6.66 4.543-.883.734-1.68 1.443-2.385 2.088l1.746-3.252.007-.007c.255-.485.467-.934.625-1.345.08-.205.148-.405.195-.59.046-.187.073-.364.074-.545.002-.392-.12-.765-.35-1.062-.17-.224-.39-.404-.638-.544-.373-.21-.81-.344-1.305-.43-.494-.088-1.047-.13-1.653-.13zM77.86 13.7c1.017 0 1.79.18 2.25.44.233.13.385.27.478.41.093.14.133.28.135.456 0 .486-.13.925-.376 1.357-.43.755-1.26 1.47-2.4 2.09-1.7.932-4.062 1.652-6.61 2.144-2.218.43-4.58.696-6.788.813.333-.49.78-1.05 1.324-1.627 1.312-1.4 3.172-2.935 5.274-4.106 2.102-1.174 4.446-1.978 6.713-1.976zm31.535 0c1.018 0 1.792.18 2.25.44.232.127.385.27.478.41.094.14.134.28.136.456 0 .487-.13.925-.377 1.357-.43.755-1.263 1.47-2.4 2.09-1.7.932-4.057 1.652-6.605 2.144-2.22.43-4.583.696-6.793.813.333-.49.78-1.05 1.324-1.627 1.313-1.4 3.18-2.935 5.282-4.106 2.103-1.174 4.438-1.978 6.706-1.976z" fill="#FFF" fill-rule="evenodd"/></svg>