<svg width="481" height="130" viewBox="0 0 481 130" xmlns="http://www.w3.org/2000/svg"><title>github</title><path d="M92.497 55.712H52.14c-1.04 0-1.885.846-1.885 1.887v19.73c0 1.04.845 1.887 1.886 1.887h15.745v24.514s-3.535 1.206-13.308 1.206c-11.53 0-27.637-4.213-27.637-39.63 0-35.427 16.77-40.088 32.517-40.088 13.63 0 19.502 2.4 23.238 3.555 1.174.36 2.26-.81 2.26-1.85L89.457 7.86c0-.487-.165-1.074-.72-1.473C87.217 5.305 77.96.125 54.577.125 27.633.125 0 11.587 0 66.687 0 121.79 31.64 130 58.302 130c22.076 0 35.468-9.434 35.468-9.434.552-.305.612-1.076.612-1.43V57.6c0-1.042-.844-1.888-1.885-1.888M300.475 6.727c0-1.05-.832-1.897-1.873-1.897H275.88c-1.04 0-1.883.847-1.883 1.897l.006 43.913h-35.42V6.727c0-1.05-.835-1.897-1.874-1.897h-22.724c-1.034 0-1.877.847-1.877 1.897V125.63c0 1.05.842 1.903 1.876 1.903h22.722c1.038 0 1.874-.854 1.874-1.903V74.77h35.42l-.063 50.86c0 1.05.843 1.903 1.882 1.903H298.6c1.04 0 1.873-.854 1.875-1.903V6.727m-165.1 15.603c0-8.182-6.56-14.794-14.652-14.794-8.085 0-14.65 6.612-14.65 14.794 0 8.173 6.565 14.803 14.65 14.803 8.093 0 14.653-6.63 14.653-14.803m-1.626 78.218V45.662c0-1.042-.84-1.894-1.88-1.894h-22.65c-1.04 0-1.97 1.072-1.97 2.114v78.635c0 2.31 1.44 2.998 3.305 2.998h20.408c2.24 0 2.788-1.1 2.788-3.035v-23.932m253.082-56.6h-22.55c-1.033 0-1.875.85-1.875 1.9v58.302s-5.728 4.19-13.86 4.19c-8.13 0-10.287-3.688-10.287-11.65V45.85c0-1.05-.84-1.9-1.875-1.9H313.5c-1.033 0-1.88.85-1.88 1.9v54.693c0 23.647 13.18 29.432 31.31 29.432 14.873 0 26.865-8.217 26.865-8.217s.57 4.33.83 4.844c.258.51.93 1.028 1.658 1.028l14.56-.064c1.032 0 1.878-.854 1.878-1.898l-.005-79.818c0-1.05-.843-1.9-1.882-1.9m52.734 64.32c-7.82-.24-13.126-3.788-13.126-3.788V66.828s5.236-3.208 11.657-3.782c8.12-.727 15.944 1.726 15.944 21.096 0 20.426-3.53 24.457-14.472 24.127zm8.894-66.994c-12.805 0-21.516 5.714-21.516 5.714V6.727c0-1.05-.84-1.897-1.875-1.897h-22.79c-1.035 0-1.877.847-1.877 1.897V125.63c0 1.05.842 1.903 1.88 1.903h15.81c.713 0 1.252-.367 1.65-1.01.393-.64.96-5.482.96-5.482s9.318 8.83 26.957 8.83c20.708 0 32.584-10.502 32.584-47.153 0-36.65-18.967-41.44-31.783-41.44zm-249.402 2.48h-17.045l-.026-22.517c0-.854-.44-1.28-1.424-1.28h-23.228c-.903 0-1.388.397-1.388 1.265v23.27s-11.64 2.81-12.427 3.037c-.784.227-1.36.95-1.36 1.812v14.623c0 1.052.84 1.9 1.878 1.9h11.91v35.178c0 26.13 18.327 28.696 30.695 28.696 5.65 0 12.41-1.814 13.527-2.226.675-.248 1.067-.947 1.067-1.705l.02-16.087c0-1.05-.887-1.898-1.885-1.898-.993 0-3.534.404-6.15.404-8.372 0-11.21-3.894-11.21-8.933v-33.43h17.046c1.04 0 1.88-.848 1.88-1.9V45.652c0-1.05-.84-1.895-1.88-1.895" fill="#FFF" fill-rule="evenodd"/></svg>