<svg xmlns="http://www.w3.org/2000/svg" width="177" height="46" viewBox="0 0 177 46"><g fill="#FFF" fill-rule="evenodd"><path d="M42 42V11H2v31h40zM37 4h5v5H2V4h5v1.997C7 6.562 7.448 7 8 7c.556 0 1-.45 1-1.003V4h5v1.997C14 6.562 14.448 7 15 7c.556 0 1-.45 1-1.003V4h5v1.997C21 6.562 21.448 7 22 7c.556 0 1-.45 1-1.003V4h5v1.997C28 6.562 28.448 7 29 7c.556 0 1-.45 1-1.003V4h5v1.997C35 6.562 35.448 7 36 7c.556 0 1-.45 1-1.003V4zm-2-2h-5v-.997C30 .438 29.552 0 29 0c-.556 0-1 .45-1 1.003V2h-5v-.997C23 .438 22.552 0 22 0c-.556 0-1 .45-1 1.003V2h-5v-.997C16 .438 15.552 0 15 0c-.556 0-1 .45-1 1.003V2H9v-.997C9 .438 8.552 0 8 0c-.556 0-1 .45-1 1.003V2H2.005C.9 2 0 2.898 0 4.005v39.99C0 45.1.898 46 2.005 46h39.99C43.1 46 44 45.102 44 43.995V4.005C44 2.9 43.102 2 41.995 2H37v-.997C37 .438 36.552 0 36 0c-.556 0-1 .45-1 1.003V2z"/><path d="M5 16.003C5 15.45 5.455 15 6 15h32c.553 0 1 .44 1 1.003v20.994C39 37.55 38.545 38 38 38H6c-.553 0-1-.44-1-1.003V16.003zM7 17h6v5H7v-5zm16 0h6v5h-6v-5zm8 0h6v5h-6v-5zM7 24h6v5H7v-5zm8 0h6v5h-6v-5zm8 0h6v5h-6v-5zm8 0h6v5h-6v-5zM7 31h6v5H7v-5zm8 0h6v5h-6v-5zm8 0h6v5h-6v-5zm8 0h6v5h-6v-5zm33.968-15.752c-.512 0-.944-.16-1.296-.48-.352-.32-.528-.725-.528-1.216 0-.512.176-.923.528-1.232.352-.31.784-.464 1.296-.464s.944.155 1.296.464c.352.31.528.72.528 1.232 0 .49-.176.896-.528 1.216-.352.32-.784.48-1.296.48zm-1.344 3.2h2.624V34h-2.624V18.448zm6.412 5.056c0-1.685.235-3.2.704-4.544.47-1.344 1.12-2.485 1.952-3.424.832-.94 1.82-1.66 2.96-2.16 1.14-.5 2.384-.752 3.728-.752 1.28 0 2.4.26 3.36.784.96.523 1.75 1.125 2.368 1.808l-1.504 1.696c-.555-.597-1.168-1.072-1.84-1.424-.672-.352-1.456-.528-2.352-.528-1.003 0-1.91.197-2.72.592-.81.395-1.504.96-2.08 1.696-.576.736-1.024 1.627-1.344 2.672-.32 1.045-.48 2.22-.48 3.52 0 1.323.155 2.512.464 3.568.31 1.056.74 1.957 1.296 2.704.555.747 1.232 1.323 2.032 1.728s1.7.608 2.704.608c1.024 0 1.915-.203 2.672-.608.757-.405 1.477-.98 2.16-1.728l1.504 1.632c-.832.96-1.77 1.707-2.816 2.24-1.045.533-2.24.8-3.584.8-1.323 0-2.544-.245-3.664-.736-1.12-.49-2.09-1.2-2.912-2.128-.82-.928-1.46-2.07-1.92-3.424-.46-1.355-.688-2.885-.688-4.592zM88 29.968c0-1.707.763-3.013 2.288-3.92s3.952-1.54 7.28-1.904c0-.49-.048-.97-.144-1.44-.096-.47-.267-.885-.512-1.248s-.57-.656-.976-.88c-.405-.224-.928-.336-1.568-.336-.917 0-1.765.17-2.544.512-.78.34-1.477.725-2.096 1.152l-1.056-1.824c.725-.47 1.61-.923 2.656-1.36 1.045-.437 2.197-.656 3.456-.656 1.9 0 3.275.58 4.128 1.744.853 1.163 1.28 2.715 1.28 4.656V34h-2.176l-.224-1.856h-.064c-.747.62-1.552 1.147-2.416 1.584-.864.437-1.776.656-2.736.656-1.323 0-2.416-.384-3.28-1.152-.864-.768-1.296-1.856-1.296-3.264zm2.592-.192c0 .896.26 1.536.784 1.92.523.384 1.168.576 1.936.576.747 0 1.456-.176 2.128-.528.672-.352 1.38-.87 2.128-1.552v-4.32c-1.3.17-2.4.373-3.296.608-.896.235-1.616.512-2.16.832-.544.32-.933.688-1.168 1.104-.235.416-.352.87-.352 1.36zm14.06-18.56h2.624v19.84c0 .427.075.725.224.896.15.17.32.256.512.256h.24c.075 0 .187-.02.336-.064l.352 1.984c-.17.085-.373.15-.608.192-.235.043-.533.064-.896.064-1.003 0-1.717-.3-2.144-.896-.427-.597-.64-1.472-.64-2.624V11.216zm13.88 1.792h12.096v2.24h-9.44v7.104h8v2.24h-8V34h-2.656V13.008zm13.452 13.248c0-1.28.197-2.427.592-3.44.395-1.013.917-1.872 1.568-2.576.65-.704 1.392-1.243 2.224-1.616.832-.373 1.696-.56 2.592-.56.98 0 1.86.17 2.64.512.78.34 1.43.832 1.952 1.472.523.64.923 1.408 1.2 2.304.277.896.416 1.9.416 3.008 0 .576-.032 1.056-.096 1.44h-10.496c.107 1.685.624 3.02 1.552 4s2.14 1.472 3.632 1.472c.747 0 1.435-.112 2.064-.336.63-.224 1.232-.517 1.808-.88l.928 1.728c-.683.427-1.44.8-2.272 1.12-.832.32-1.78.48-2.848.48-1.045 0-2.02-.187-2.928-.56-.907-.373-1.696-.907-2.368-1.6-.672-.693-1.2-1.54-1.584-2.544-.384-1.003-.576-2.144-.576-3.424zm10.88-1.184c0-1.6-.336-2.82-1.008-3.664-.672-.843-1.616-1.264-2.832-1.264-.555 0-1.083.112-1.584.336-.5.224-.955.544-1.36.96-.405.416-.74.928-1.008 1.536-.267.608-.443 1.307-.528 2.096h8.32zm4.492 1.184c0-1.28.197-2.427.592-3.44.395-1.013.917-1.872 1.568-2.576.65-.704 1.392-1.243 2.224-1.616.832-.373 1.696-.56 2.592-.56.98 0 1.86.17 2.64.512.78.34 1.43.832 1.952 1.472.523.64.923 1.408 1.2 2.304.277.896.416 1.9.416 3.008 0 .576-.032 1.056-.096 1.44h-10.496c.107 1.685.624 3.02 1.552 4s2.14 1.472 3.632 1.472c.747 0 1.435-.112 2.064-.336.63-.224 1.232-.517 1.808-.88l.928 1.728c-.683.427-1.44.8-2.272 1.12-.832.32-1.78.48-2.848.48-1.045 0-2.02-.187-2.928-.56-.907-.373-1.696-.907-2.368-1.6-.672-.693-1.2-1.54-1.584-2.544-.384-1.003-.576-2.144-.576-3.424zm10.88-1.184c0-1.6-.336-2.82-1.008-3.664-.672-.843-1.616-1.264-2.832-1.264-.555 0-1.083.112-1.584.336-.5.224-.955.544-1.36.96-.405.416-.74.928-1.008 1.536-.267.608-.443 1.307-.528 2.096h8.32zm4.524 1.184c0-1.26.187-2.395.56-3.408.373-1.013.87-1.872 1.488-2.576.62-.704 1.333-1.248 2.144-1.632.81-.384 1.664-.576 2.56-.576.896 0 1.675.16 2.336.48.66.32 1.333.757 2.016 1.312l-.128-2.656v-5.984h2.656V34h-2.176l-.224-1.824h-.096c-.62.597-1.328 1.115-2.128 1.552-.8.437-1.66.656-2.576.656-1.963 0-3.525-.704-4.688-2.112-1.163-1.408-1.744-3.413-1.744-6.016zm2.72-.032c0 1.877.373 3.34 1.12 4.384.747 1.045 1.803 1.568 3.168 1.568.725 0 1.408-.176 2.048-.528.64-.352 1.28-.89 1.92-1.616v-8.128c-.66-.597-1.296-1.02-1.904-1.264-.608-.245-1.232-.368-1.872-.368-.62 0-1.2.144-1.744.432-.544.288-1.02.693-1.424 1.216-.405.523-.725 1.147-.96 1.872-.235.725-.352 1.536-.352 2.432z"/></g></svg>