<svg xmlns="http://www.w3.org/2000/svg" width="79" height="32" viewBox="0 0 79 32"><path fill="#FFF" fill-rule="evenodd" d="M0 1.996C0 1.446.444 1 1 1h3c.552 0 1 .438 1 .996v29.008c0 .55-.444.996-1 .996H1c-.552 0-1-.438-1-.996V1.996zm24.078.22C22.592 1.154 20.89.5 19 .5c-4.526 0-8.5 3.753-8.5 8.5 0 5.026 2.657 8.5 7.5 8.5 2.957 0 5 1.6 5 4.5 0 3.175-1.917 5-4.5 5-.868 0-1.804-.423-2.723-1.18-.355-.292-.562-.545-.562-.545-.376-.402-1.042-.47-1.494-.147l-2.44 1.744c-.45.32-.532.918-.156 1.347 0 0 .487.647 1.474 1.46C14.335 31.11 16.305 32 18.5 32c5.292 0 9.5-4.008 9.5-10 0-5.968-4.513-9.5-10-9.5-1.745 0-2.5-.987-2.5-3.5 0-1.92 1.673-3.5 3.5-3.5.734 0 1.47.283 2.172.784.447.32.145.11.145.11.404.368 1.077.39 1.512.043l2.34-1.874c.433-.345.47-.952.083-1.338 0 0-.31-.39-1.175-1.01zM32 1.996c0-.55.45-.996.995-.996h17.01c.55 0 .995.44.995 1.006v2.957c0 .556-.45 1.006-1.007 1.006H38.007c-.556 0-1.007.454-1.007 1V13c0 .552.456 1 1.002 1h9.996c.553 0 1.002.444 1.002 1v3c0 .552-.456 1-1.002 1h-9.996c-.553 0-1.002.453-1.002.997v6.006c0 .55.45.997 1.007.997h11.986c.556 0 1.007.444 1.007 1v3c0 .552-.45 1-.995 1h-17.01c-.55 0-.995-.438-.995-.996V1.996zm24 0c0-.55.443-.996 1.01-.996h1.98c.558 0 1.277.363 1.603.804l12.814 17.392c.328.444.593.353.593-.19V1.995c0-.55.444-.996 1-.996h3c.552 0 1 .438 1 .996v29.008c0 .55-.443.996-1.01.996h-1.98c-.558 0-1.265-.365-1.585-.823L61.575 12.77c-.318-.455-.575-.367-.575.17v18.066c0 .55-.444.994-1 .994h-3c-.552 0-1-.438-1-.996V1.996z"/></svg>