<svg xmlns="http://www.w3.org/2000/svg" width="296" height="57" viewBox="0 0 296 57" xmlns:xlink="http://www.w3.org/1999/xlink"><defs><path id="a" d="M33.994 56.793c-1.653.115-4.326.12-5.995.013L3 55.194c-1.657-.107-3-1.528-3-3.2V15.006c0-1.66 1.254-3.492 2.806-4.093l25.388-9.828c1.55-.6 4.052-.57 5.587.065l23.44 9.7c1.535.635 2.78 2.484 2.78 4.157v36.986c0 1.66-1.34 3.1-2.994 3.214l-23.012 1.586z"/><mask id="b" width="60" height="57" x="0" y="0" fill="#fff"><use xlink:href="#a"/></mask></defs><g fill="none" fill-rule="evenodd"><path fill="#FFF" d="M78.88 43h3.872V27l7.008 10.496h.128l7.072-10.56V43h3.936V20.6h-4.192l-6.816 10.592L83.072 20.6H78.88V43zm23.856 0h4.032l2.304-5.408h10.592L121.936 43h4.16l-9.856-22.56h-3.648L102.736 43zm7.776-8.896l3.84-8.96 3.872 8.96h-7.712zM130.56 43h3.968V24.248h7.104V20.6h-18.176v3.648h7.104V43zm13.232 0h16.768v-3.52h-12.832v-6.016h11.232v-3.52h-11.232V24.12H160.4V20.6h-16.608V43zm19.44 0h3.936v-7.808h4.928L177.6 43h4.672l-6.048-8.48c3.104-.896 5.312-3.104 5.312-6.784v-.064c0-1.952-.672-3.616-1.856-4.832-1.44-1.408-3.648-2.24-6.464-2.24h-9.984V43zm3.936-11.296v-7.52h5.728c2.912 0 4.64 1.312 4.64 3.712v.064c0 2.272-1.792 3.744-4.608 3.744h-5.76zM184.592 43h3.936V20.6h-3.936V43zm7.92 0h16.768v-3.52h-12.832v-6.016h11.232v-3.52h-11.232V24.12h12.672V20.6h-16.608V43zm19.44 0h15.712v-3.584h-11.776V20.6h-3.936V43zm17.104 0h4.256v-4.416h-4.256V43zm7.312 0h3.872V27.064L252.592 43h3.296V20.6h-3.872v15.488l-12-15.488h-3.648V43zm23.28 0h16.768v-3.52h-12.832v-6.016h11.232v-3.52h-11.232V24.12h12.672V20.6h-16.608V43zm24.944 0h3.968V24.248h7.104V20.6h-18.176v3.648h7.104V43zM33.996 56.114c-1.654.118-4.343.124-5.982.015L3.986 54.526C2.336 54.417 1 52.987 1 51.33V16.326c0-1.656 1.25-3.5 2.782-4.11L28.218 2.44c1.536-.614 4.02-.58 5.543.07l22.48 9.634c1.524.654 2.76 2.525 2.76 4.182V51.33c0 1.655-1.332 3.093-2.996 3.212l-22.008 1.572z"/><path stroke="#D2312D" stroke-width="2" d="M31 2v54"/><path fill="#D2312D" d="M7 53V17l19-8v46M36 55V10l18 7v36"/><use stroke="#000" stroke-width="6" mask="url(#b)" stroke-linecap="round" stroke-linejoin="round" xlink:href="#a"/></g></svg>