<svg xmlns="http://www.w3.org/2000/svg" width="400" height="75" viewBox="0 0 400 75"><g fill="#FFF" fill-rule="evenodd"><path d="M91.03 18.63c-2.16-2.61-5.253-4.38-8.907-4.38-7.206 0-12.844 4.67-12.844 13.268v20.885h6.255v-20.64c0-3.684 3.088-7.124 6.588-7.124s5.684 2.947 5.684 7.37v20.393H94.453v-20.64c0-3.684 3.09-7.124 6.59-7.124 3.498 0 5.683 2.947 5.683 7.37v20.393h6.542v-20.64c0-6.633-5.02-13.512-12.226-13.512-4.09 0-7.677 1.505-10.012 4.38zM.49 57.493L8.11 52.58V27.764c0-8.845 13.76-8.845 13.76-.983 0 7.864.245 21.377.245 21.377h7.617s-.246-11.793 0-20.147c.245-8.354-4.67-13.76-13.514-13.76-4.914 0-8.108 3.44-8.108 3.44v-2.948H.242l.25 42.752zm34.4-42.26v19.655c0 8.6 6.142 14.25 14.74 14.25 8.6 0 14.006-6.88 14.006-13.513v-20.64h-6.634v19.657c0 4.422-3.194 8.108-7.37 8.108-4.177 0-7.863-3.44-7.863-7.125v-20.64h-6.88v.246zm93.366 13.022h16.71s-1.723-7.617-9.83-7.617c-8.11 0-11.196 7.864-11.057 11.055.244 5.65 3.69 10.94 10.564 11.303 4.668.245 9.336-5.406 9.336-5.406l5.16 4.177s-4.914 7.616-14.005 7.616c-9.09 0-17.936-7.37-17.936-17.2 0-9.827 8.107-17.935 17.444-17.935 9.336 0 17.69 8.11 17.69 15.97 0 1.967-.246 3.687-.246 3.687h-24.08l.248-5.65zm28.01 20.393V14.987h6.388v3.203s2.088-3.94 10.565-3.94v6.635s-10.075-1.72-10.075 10.565v17.2h-6.88zm22.604-33.662h6.634v33.415h-6.634V14.988zm3.194-3.194c2.17 0 3.93-1.705 3.93-3.81 0-2.102-1.76-3.807-3.93-3.807s-3.93 1.705-3.93 3.808c0 2.104 1.76 3.81 3.93 3.81zM217.2 42.26h-5.406c-3.932 0-10.565-3.44-10.565-10.32 0-6.88 6.14-10.564 9.58-10.564h6.39v-6.393s-1.967-.005-7.372 0c-5.405.005-15.48 5.41-15.48 16.958 0 11.55 9.583 16.463 15.48 16.463h7.37V42.26zm30.22 6.39V28.746c0-4.914-4.914-8.108-10.81-8.108-5.897 0-10.32 5.65-10.32 11.3 0 5.652 4.668 10.812 10.074 10.812 5.405 0 8.845-4.668 8.845-4.668v7.862s-3.687 3.194-9.092 3.194c-5.405 0-11.057-3.194-13.268-7.125-2.21-3.93-3.194-6.88-3.194-11.057 0-4.177 2.703-16.707 17.445-16.707 14.743 0 16.708 12.04 16.708 14.497V48.65h-6.388zM265.347 0v31.45c0 4.914 4.67 11.302 10.566 11.302 5.896 0 10.32-5.65 10.32-11.302 0-5.65-4.67-10.81-10.075-10.81-5.405 0-8.845 4.667-8.845 4.667v-7.862s3.686-3.194 9.09-3.194c5.406 0 11.057 3.195 13.27 7.126 2.21 3.93 3.193 6.88 3.193 11.056 0 4.177-2.703 16.708-17.445 16.708-14.74 0-16.706-15.233-16.706-17.69V0h6.633zm33.424 0h6.635v48.403h-6.634V0zm22.123 28.256h16.71s-1.722-7.617-9.83-7.617-11.195 7.864-11.057 11.055c.246 5.65 3.69 10.94 10.566 11.303 4.668.245 9.336-5.406 9.336-5.406l5.16 4.177s-4.914 7.616-14.005 7.616c-9.09 0-17.936-7.37-17.936-17.2 0-9.827 8.108-17.935 17.445-17.935 9.336 0 17.69 8.11 17.69 15.97 0 1.967-.246 3.687-.246 3.687h-24.08l.247-5.65z"/><path d="M276.842 73.49c16.16-.58 29.584-1.76 42.492-3.81 24.715-3.926 44.996-10.974 61.62-22.15.187.087.397.136.618.136.815 0 1.475-.66 1.475-1.474 0-.815-.66-1.475-1.475-1.475-.814 0-1.474.66-1.474 1.475 0 .226.05.44.143.632-16.46 11.025-36.557 17.993-61.06 21.886-12.722 2.02-25.956 3.192-41.84 3.78 38.884-3.236 69.866-12.864 87.105-28.422.2.1.426.158.666.158.815 0 1.475-.66 1.475-1.474s-.66-1.474-1.474-1.474-1.474.66-1.474 1.474c0 .215.047.42.13.605-20.115 18.137-59.324 28.174-108.048 29.27-2.974-.09-6.933-.145-11.983-.145-28.256 0-83.538-9.337-117.69-14.742-34.153-5.406-80.59-5.897-101.72-.983-21.13 4.914-25.45 11.55-23.096 13.76 3.93 3.684 3.438-3.44 33.168-10.32 29.73-6.88 71.5-4.67 112.53 2.21 41.033 6.88 75.922 11.794 97.544 11.794 2.996 0 5.69-.032 8.035-.088 30.4.76 50.355.396 70.824-1.756 26.985-2.837 51.07-8.812 74.143-18.99.268.273.64.442 1.053.442.814 0 1.474-.66 1.474-1.474s-.66-1.474-1.474-1.474-1.474.66-1.474 1.474c0 .048.002.095.006.14-22.97 10.13-46.95 16.08-73.83 18.905-14.424 1.515-28.6 2.142-46.386 2.11z"/></g></svg>