<svg width="400" height="118" viewBox="0 0 400 118" xmlns="http://www.w3.org/2000/svg"><title>online.net</title><g fill="#FFF" fill-rule="evenodd"><path d="M245.793 25.148h-11.58c-1.215 0-2.2.986-2.2 2.202v80.972c0 1.19.948 2.153 2.127 2.193.026 0 .048.007.074.007.025 0 .048-.007.07-.007h11.437c.027 0 .05.007.074.007.026 0 .05-.007.072-.007 1.182-.04 2.13-1 2.13-2.193V27.35c0-1.216-.986-2.202-2.202-2.202zm21.8 22.892h-11.58c-1.214 0-2.2.987-2.2 2.202v58.08c0 1.19.948 2.153 2.128 2.193.028 0 .05.007.074.007.025 0 .048-.007.073-.007h11.435c.026 0 .05.007.074.007.025 0 .05-.007.073-.007 1.18-.04 2.13-1 2.13-2.193v-58.08c-.003-1.215-.99-2.2-2.204-2.2zm0-22.892h-11.58c-1.214 0-2.2.986-2.2 2.202v11.636c0 1.19.948 2.154 2.128 2.193.028 0 .05.005.074.005.025 0 .048-.007.073-.007h11.435c.026 0 .05.006.074.006.025 0 .05-.007.073-.007 1.18-.04 2.13-1.003 2.13-2.194V27.35c-.003-1.216-.99-2.202-2.204-2.202zm64.515 40.95c-1.063-10.226-9.716-18.188-20.218-18.165h-.052v-.012l-26.084.054c-5.097.01-9.295 3.79-9.996 8.692-.068.476-.115.962-.114 1.46.002.274.013 6.307.025 11.637l.013 8.14.063 30.4c.002 1.193.95 2.154 2.13 2.19.026 0 .048.006.073.006.024 0 .047-.006.073-.008l11.434-.022c.025 0 .048.007.073.006.025 0 .05-.006.074-.007 1.182-.04 2.127-1.006 2.125-2.198l-.054-24.36h-.026l-.004-15.937V64.78c.023-1.09.836-1.977 1.892-2.123l12.73-.05c.04 0 .077-.005.118-.005 5.432-.01 9.878 4.383 9.89 9.815v35.804c.003 1.193.988 2.154 2.17 2.19.023 0 .046.007.072.007.024 0 .048-.005.07-.007l11.437-.025c.025.002.048.008.072.008.025 0 .05-.008.073-.008 1.18-.04 2.088-1.006 2.086-2.198V68.175c-.002-.7-.077-1.394-.148-2.077zm-105.796 0c-1.062-10.226-9.716-18.188-20.217-18.165h-.053v-.012l-26.083.054c-5.1.01-9.298 3.79-9.997 8.692-.07.476-.116.962-.116 1.46l.025 11.637.016 8.14.06 30.4c.003 1.193.952 2.154 2.133 2.19.026 0 .047.006.073.006.025 0 .048-.007.073-.008l11.435-.022c.026 0 .05.007.074.006.024 0 .048-.006.072-.007 1.18-.04 2.128-1.006 2.125-2.198l-.05-24.36h-.026l-.005-15.937V64.78c.023-1.09.836-1.977 1.894-2.123l12.726-.05c.042 0 .082-.005.12-.005 5.432-.01 9.88 4.383 9.892 9.815v35.804c.002 1.19.99 2.154 2.168 2.19.024 0 .047.007.073.007.025 0 .05-.005.072-.007l11.436-.025c.025.002.05.008.073.008.027 0 .05-.008.072-.008 1.183-.04 2.09-1.006 2.087-2.198 0 0 .003-39.31 0-40.012 0-.7-.077-1.394-.148-2.077zm-61.47.11c-1.043-10.225-9.68-18.206-20.182-18.206-.017 0-20.95-.093-21.3-.093-.703 0-1.395.032-2.08.104-10.227 1.04-18.116 9.752-18.116 20.254v.052h-.012v9.133c0 .353.02.7.058 1.046v2.06h-.004v9.612c0 .702.034 1.395.105 2.08 1.04 10.226 9.68 18.206 20.18 18.206l.053-.003v.013h21.08c.702 0 1.396-.035 2.08-.106 10.226-1.04 18.207-9.73 18.207-20.23l-.003-.052h.012v-7.867c.005-.07.02-.14.02-.214v-4.1h.003v-9.612c.002-.7-.034-1.394-.102-2.078zM148.81 85.324c.01.19.025.38.025.572 0 .18-.018.36-.026.537v.355h-.02c-.453 5.056-4.697 9.023-9.87 9.023-.037 0-.07-.002-.108-.003v.003h-9.527v-.016c-.148.007-.295.017-.446.017-5.174 0-9.417-3.965-9.87-9.02l-.045-14.24v-.03c.017-5.46 4.45-9.884 9.914-9.884.15 0 .295.01.444.015v-.014h9.527v.003c.037 0 .073-.004.11-.004 5.475 0 9.914 4.438 9.914 9.914 0 .204-.016.406-.03.608l.004 12.166zm251.164-.56l-.024-10.116c0-.025.007-.05.007-.073 0-.025-.006-.048-.007-.072-.002-.03-.01-.058-.012-.088v-6.05c0-.703-.036-1.397-.106-2.08-1.04-10.226-9.678-18.207-20.18-18.207-.017 0-20.95-.092-21.3-.092-.702 0-1.395.035-2.08.106-10.226 1.04-18.115 9.75-18.115 20.252v.053h-.013s.054 21.15.054 21.852c0 .7.034 1.395.105 2.077 1.04 10.227 9.68 18.208 20.18 18.208.017 0 .034-.004.054-.004v.017h1.375l-.01.027 33.15-.027c1.19-.004 2.152-.954 2.188-2.133 0-.026.01-.048.01-.073 0-.024-.01-.047-.01-.07l-.026-10.116c.002-.026.007-.05.007-.074 0-.023-.003-.047-.005-.07-.04-1.182-1.005-2.127-2.198-2.125h-29.183c-5.106 0-9.297-3.864-9.84-8.823l43.794-.026c1.19-.002 2.15-.95 2.187-2.13.002-.027.008-.048.008-.074 0-.02-.006-.044-.008-.07zM383.81 72.58c0 1.16-.912 2.1-2.06 2.16v.01h-25.71v-.007c-1.162-.04-2.095-.99-2.095-2.163l-.017-.153c.107-5.383 4.497-9.716 9.904-9.716.15 0 .296.01.445.018v-.016h9.526v.006c.037-.002.073-.005.11-.005 5.396 0 9.78 4.318 9.902 9.684h-.005v.186zm-18.845-42.79c-.275-2.637-2.504-4.69-5.21-4.684h-.015v-.002l-6.725.014c-1.313.003-2.395.977-2.575 2.24-.017.124-.03.25-.03.377 0 .07.005 1.625.007 3l.004 2.098.018 7.837c0 .307.244.555.548.564.008 0 .014.003.02.003l.018-.003 2.948-.006c.008 0 .013.003.02.002l.018-.002c.306-.01.55-.26.55-.566l-.015-6.28h-.005l-.002-4.108v-.823c.006-.28.213-.51.487-.546l3.28-.013h.032c1.4-.003 2.546 1.13 2.55 2.53v9.23c0 .307.254.555.56.564l.016.002c.008 0 .015 0 .02-.002l2.947-.006.02.002c.007 0 .012-.003.018-.003.305-.01.538-.26.537-.567 0 0 .002-10.133 0-10.313 0-.182-.018-.36-.037-.538zm17.79 4.794l-.008-2.607c.002-.006.003-.012.003-.02 0-.006 0-.012-.003-.018 0-.01-.003-.016-.003-.023v-1.56c0-.182-.01-.36-.026-.537-.27-2.635-2.494-4.693-5.202-4.693l-5.49-.023c-.18 0-.36.01-.538.028-2.635.267-4.67 2.513-4.67 5.22v.013h-.002l.012 5.633c0 .182.01.36.03.537.266 2.636 2.494 4.693 5.2 4.693h.013v.004h.358l-.002.006 8.543-.006c.306-.002.556-.246.564-.55v-.038l-.008-2.607.002-.02-.002-.018c-.01-.307-.257-.55-.565-.55h-7.522c-1.317 0-2.396-.995-2.537-2.275l11.29-.007c.308 0 .554-.245.564-.55l.002-.018v-.018zm-4.167-3.14c0 .3-.236.54-.53.557v.004h-6.63c-.298-.013-.538-.257-.538-.56l-.007-.04c.03-1.386 1.16-2.504 2.555-2.504.038 0 .078.002.115.004V28.9h2.483c1.39 0 2.52 1.112 2.554 2.496v.048h-.002zm16.298 9.27l-.005-2.608.003-.02v-.018c-.012-.305-.26-.548-.568-.548h-3.138c-1.315 0-2.423-.996-2.502-2.274V28.88h5.36c.314 0 .568-.253.568-.567V25.67c0-.312-.254-.567-.567-.567h-5.36V19.88c0-.312-.254-.567-.568-.567h-2.985c-.314 0-.566.254-.566.568v12.106c0 .016.002.03.003.046.003 1.692.01 3.926.01 4.038 0 .182.007.36.025.537.27 2.635 2.497 4.694 5.203 4.694h.013v.003h.356l-.003.007 4.162-.008c.306 0 .554-.247.564-.55v-.02l-.003-.02zm-48.49-2.387h-2.055c-.213 0-.39.175-.39.392v2.063c0 .21.17.38.38.39h2.078c.21-.01.38-.18.38-.39V38.72c0-.218-.175-.393-.392-.393zM74.41 98.047c-14.155-2.014-21.85-16.375-13.29-35.13 1.69-3.74 3.96-6.126 6.128-3.31l3.9 5.056c1.326 1.865 1.097 4.566-.086 6.3-6.637 9.913-3.53 21.687 5.442 24.297 4.143 1.205 5.918 0 6.2.86.413 1.274-4.456 2.476-8.294 1.928z"/><path d="M65.278 106.467C40.12 102.885 26.436 77.36 41.652 44.023c3.008-6.65 7.045-10.892 10.895-5.88 2.313 2.99 4.62 5.986 6.932 8.984 2.354 3.314 1.95 8.115-.155 11.195-11.8 17.623-6.274 38.552 9.675 43.19 7.365 2.142 10.518 0 11.017 1.53.737 2.265-7.918 4.398-14.74 3.425z"/><path d="M49.868 116.99c-41.69-5.94-64.364-48.236-39.153-103.48C15.7 2.49 22.39-4.54 28.77 3.762c3.833 4.962 7.656 9.924 11.488 14.89 3.903 5.494 3.23 13.448-.254 18.553-19.55 29.202-10.395 63.887 16.03 71.57 12.203 3.55 17.43 0 18.258 2.538 1.222 3.755-13.123 7.286-24.424 5.676zm38.077-34.393c-.254 5.307-3.99 9.443-8.343 9.234-4.354-.205-7.678-4.68-7.425-9.99.254-5.306 3.99-9.442 8.343-9.233 4.355.21 7.678 4.68 7.425 9.99z"/></g></svg>