<svg width="72" height="72" viewBox="0 0 72 72" xmlns="http://www.w3.org/2000/svg"><title>orange</title><path d="M0 4c0-2.21 1.798-4 4-4h64c2.21 0 4 1.798 4 4v64c0 2.21-1.798 4-4 4H4c-2.21 0-4-1.798-4-4V4zm8.89 62.08c-2.6 0-4.944-1.656-4.944-5.274 0-3.617 2.345-5.272 4.945-5.272s4.943 1.655 4.943 5.272c0 3.618-2.342 5.273-4.94 5.273zm0-8.323c-1.965 0-2.324 1.77-2.324 3.05 0 1.278.36 3.052 2.325 3.052 1.967 0 2.326-1.776 2.326-3.055 0-1.28-.36-3.05-2.324-3.05zm6.746-1.96h2.502v1.175c.477-.634 1.652-1.38 2.753-1.38.106 0 .235 0 .343.014v2.47h-.13c-1.142 0-2.393.178-2.797 1.067v6.645h-2.67v-9.99zM28.22 64.92c-1.018.667-2.12.992-3.305.992-1.864 0-2.97-1.24-2.97-2.906 0-2.238 2.057-3.42 6.295-3.897v-.56c0-.724-.55-1.15-1.568-1.15s-1.843.405-2.44 1.15l-1.773-1.01c.93-1.303 2.347-1.955 4.253-1.955 2.606 0 4.07 1.13 4.07 2.966 0 0-.003 7.225 0 7.24h-2.33l-.235-.872zm-3.684-2.106c0 .672.42 1.3 1.185 1.3.827 0 1.63-.342 2.438-1.053v-2.364c-2.457.303-3.62.937-3.62 2.12zm8.326-6.75l2.178-.3.24 1.185c1.227-.9 2.203-1.38 3.43-1.38 2.056 0 3.12 1.09 3.12 3.253v6.955h-2.633v-6.5c0-1.223-.317-1.774-1.268-1.774-.786 0-1.57.356-2.466 1.108v7.165H32.86V56.06zm20.093-.302v9.46c0 1.667-.133 4.423-4.89 4.448-1.965.014-3.787-.774-4.15-2.488l2.593-.42c.108.493.41.98 1.882.98 1.362 0 2.017-.65 2.017-2.212v-1.164l-.034-.035c-.42.75-1.053 1.46-2.58 1.46-2.33 0-4.164-1.618-4.164-4.995 0-3.342 1.89-5.214 4.013-5.217 1.997-.003 2.732.906 2.906 1.384l-.036-.003.22-1.196h2.22zm-4.69 7.88c1.992-.015 2.163-2.047 2.163-3.367 0-1.57-.763-2.834-2.18-2.834-.946 0-2.002.69-2.002 2.944 0 1.23.088 3.275 2.018 3.258zm10.977 2.33c-2.945 0-4.7-1.897-4.7-5.183 0-3.327 1.776-5.22 4.658-5.22 2.882 0 4.597 1.837 4.597 5.085 0 .174-.02.345-.02.516h-6.654c.018 1.897.805 2.85 2.352 2.85.994 0 1.652-.4 2.27-1.277l1.923 1.066c-.847 1.417-2.373 2.16-4.426 2.16zm1.973-6.504c0-1.335-.767-2.122-2.015-2.122-1.188 0-1.93.77-2.035 2.122h4.05zm1.002-7.462v.44h1.032v2.864h.545v-2.865h1.035v-.44h-2.613zm6.08 0l-.967 2.506-.986-2.506H65.5v3.304h.547v-2.757h.014l1.086 2.757h.35l1.075-2.757h.02v2.757h.542v-3.304H68.3z" fill="#FFF" fill-rule="evenodd"/></svg>