<svg xmlns="http://www.w3.org/2000/svg" width="168" height="48" viewBox="0 0 168 48"><g fill="#FFF" fill-rule="evenodd"><path d="M34 48c.743 0 1.227-.782.894-1.447l-10-20c-.368-.737-1.42-.737-1.788 0l-10 20c-.333.665.15 1.447.894 1.447h20zm-19.106-.553l10-20h-1.788l10 20L34 46H14l.894 1.447z"/><path d="M48 24C48 10.744 37.254 0 24 0 10.743 0 0 10.745 0 24c0 6.26 2.415 12.15 6.665 16.59.382.4 1.015.413 1.414.03.398-.38.412-1.014.03-1.413C4.213 35.135 2 29.74 2 24 2 11.85 11.85 2 24 2s22 9.85 22 22c0 5.74-2.213 11.136-6.11 15.207-.38.4-.367 1.032.032 1.414.4.383 1.032.37 1.414-.03C45.584 36.15 48 30.262 48 24z"/><path d="M10 24c0-7.732 6.267-14 14-14 7.73 0 14 6.27 14 14 0 2.955-.93 5.774-2.628 8.144-.322.45-.22 1.073.23 1.395.448.32 1.073.218 1.395-.23C38.937 30.602 40 27.38 40 24c0-8.835-7.165-16-16-16-8.837 0-16 7.164-16 16 0 3.38 1.063 6.606 3.004 9.31.322.448.947.55 1.396.23.448-.323.55-.948.23-1.397C10.93 29.776 10 26.957 10 24z"/><path d="M18.006 24.113C18 24.043 18 24.02 18 24c0-3.32 2.71-6 6-6 3.293 0 6 2.68 6 6 0 .02-.002.043-.007.113l-.01.155c-.02.552.41 1.017.962 1.038.552.02 1.017-.41 1.038-.96 0-.022.002-.037.005-.093.01-.117.012-.17.012-.252 0-4.43-3.607-8-8-8-4.39 0-8 3.57-8 8 0 .082.002.136.01.253.005.056.006.07.006.092.022.552.486.982 1.038.96.552-.02.982-.485.96-1.037 0-.05-.003-.088-.008-.155z"/><path d="M25 23c0-.552-.448-1-1-1s-1 .448-1 1v4c0 .552.448 1 1 1s1-.448 1-1v-4zM29.557 37.83l-1.112-1.66-14.96 10 1.112 1.66"/><path d="M19.555 36.168l-1.11 1.664 15 10 1.11-1.664M27.46 35v-2h-6.92v2M66.38 14.008h6.432c1.152 0 2.208.107 3.168.32.96.213 1.776.56 2.448 1.04.672.48 1.195 1.115 1.568 1.904.373.79.56 1.76.56 2.912 0 1.11-.187 2.07-.56 2.88-.373.81-.9 1.483-1.584 2.016-.683.533-1.5.933-2.448 1.2-.95.267-2 .4-3.152.4h-3.776V35H66.38V14.008zm6.112 10.496c1.835 0 3.195-.347 4.08-1.04.885-.693 1.328-1.787 1.328-3.28 0-1.515-.448-2.565-1.344-3.152-.896-.587-2.25-.88-4.064-.88h-3.456v8.352h3.456zm9.644 2.752c0-1.3.197-2.46.592-3.472.395-1.013.923-1.872 1.584-2.576.66-.704 1.424-1.237 2.288-1.6.864-.363 1.776-.544 2.736-.544.96 0 1.872.18 2.736.544.864.363 1.627.896 2.288 1.6.66.704 1.19 1.563 1.584 2.576.395 1.013.592 2.17.592 3.472 0 1.28-.197 2.427-.592 3.44-.395 1.013-.923 1.867-1.584 2.56-.66.693-1.424 1.22-2.288 1.584-.864.363-1.776.544-2.736.544-.96 0-1.872-.18-2.736-.544-.864-.363-1.627-.89-2.288-1.584-.66-.693-1.19-1.547-1.584-2.56-.395-1.013-.592-2.16-.592-3.44zm2.72 0c0 .896.107 1.707.32 2.432.213.725.517 1.35.912 1.872.395.523.87.928 1.424 1.216.555.288 1.163.432 1.824.432.66 0 1.27-.144 1.824-.432.555-.288 1.03-.693 1.424-1.216.395-.523.7-1.147.912-1.872.213-.725.32-1.536.32-2.432 0-.896-.107-1.712-.32-2.448-.213-.736-.517-1.37-.912-1.904-.395-.533-.87-.944-1.424-1.232-.555-.288-1.163-.432-1.824-.432-.66 0-1.27.144-1.824.432-.555.288-1.03.7-1.424 1.232-.395.533-.7 1.168-.912 1.904-.213.736-.32 1.552-.32 2.448zm14.156 0c0-1.26.187-2.395.56-3.408.373-1.013.87-1.872 1.488-2.576.62-.704 1.333-1.248 2.144-1.632.81-.384 1.664-.576 2.56-.576.896 0 1.675.16 2.336.48.66.32 1.333.757 2.016 1.312l-.128-2.656v-5.984h2.656V35h-2.176l-.224-1.824h-.096c-.62.597-1.328 1.115-2.128 1.552-.8.437-1.66.656-2.576.656-1.963 0-3.525-.704-4.688-2.112-1.163-1.408-1.744-3.413-1.744-6.016zm2.72-.032c0 1.877.373 3.34 1.12 4.384.747 1.045 1.803 1.568 3.168 1.568.725 0 1.408-.176 2.048-.528.64-.352 1.28-.89 1.92-1.616v-8.128c-.66-.597-1.296-1.02-1.904-1.264-.608-.245-1.232-.368-1.872-.368-.62 0-1.2.144-1.744.432-.544.288-1.02.693-1.424 1.216-.405.523-.725 1.147-.96 1.872-.235.725-.352 1.536-.352 2.432zm14.508.032c0-1.3.203-2.46.608-3.472.405-1.013.95-1.872 1.632-2.576.683-.704 1.477-1.237 2.384-1.6.907-.363 1.86-.544 2.864-.544 1.024 0 1.904.187 2.64.56.736.373 1.37.805 1.904 1.296l-1.312 1.696c-.47-.405-.955-.736-1.456-.992-.5-.256-1.06-.384-1.68-.384-.704 0-1.355.144-1.952.432-.597.288-1.11.7-1.536 1.232-.427.533-.763 1.168-1.008 1.904s-.368 1.552-.368 2.448c0 .896.117 1.707.352 2.432.235.725.56 1.35.976 1.872.416.523.923.928 1.52 1.216.597.288 1.248.432 1.952.432.747 0 1.424-.155 2.032-.464.608-.31 1.147-.677 1.616-1.104l1.184 1.728c-.704.62-1.488 1.11-2.352 1.472-.864.363-1.765.544-2.704.544-1.024 0-1.984-.18-2.88-.544-.896-.363-1.67-.89-2.32-1.584-.65-.693-1.163-1.547-1.536-2.56-.373-1.013-.56-2.16-.56-3.44zm14.156 3.712c0-1.707.763-3.013 2.288-3.92s3.952-1.54 7.28-1.904c0-.49-.048-.97-.144-1.44-.096-.47-.267-.885-.512-1.248s-.57-.656-.976-.88c-.405-.224-.928-.336-1.568-.336-.917 0-1.765.17-2.544.512-.78.34-1.477.725-2.096 1.152l-1.056-1.824c.725-.47 1.61-.923 2.656-1.36 1.045-.437 2.197-.656 3.456-.656 1.9 0 3.275.58 4.128 1.744.853 1.163 1.28 2.715 1.28 4.656V35h-2.176l-.224-1.856h-.064c-.747.62-1.552 1.147-2.416 1.584-.864.437-1.776.656-2.736.656-1.323 0-2.416-.384-3.28-1.152-.864-.768-1.296-1.856-1.296-3.264zm2.592-.192c0 .896.26 1.536.784 1.92.523.384 1.168.576 1.936.576.747 0 1.456-.176 2.128-.528.672-.352 1.38-.87 2.128-1.552v-4.32c-1.3.17-2.4.373-3.296.608-.896.235-1.616.512-2.16.832-.544.32-.933.688-1.168 1.104-.235.416-.352.87-.352 1.36zm13.644.704c.683.555 1.38 1.003 2.096 1.344.715.34 1.54.512 2.48.512 1.024 0 1.792-.235 2.304-.704.512-.47.768-1.045.768-1.728 0-.405-.107-.757-.32-1.056-.213-.3-.485-.56-.816-.784-.33-.224-.71-.42-1.136-.592-.427-.17-.853-.34-1.28-.512-.555-.192-1.11-.41-1.664-.656-.555-.245-1.05-.544-1.488-.896-.437-.352-.795-.763-1.072-1.232-.277-.47-.416-1.035-.416-1.696 0-.62.123-1.2.368-1.744s.597-1.013 1.056-1.408c.46-.395 1.02-.704 1.68-.928.66-.224 1.408-.336 2.24-.336.98 0 1.883.17 2.704.512.82.34 1.53.757 2.128 1.248l-1.248 1.664c-.533-.405-1.088-.736-1.664-.992-.576-.256-1.205-.384-1.888-.384-.98 0-1.7.224-2.16.672-.46.448-.688.97-.688 1.568 0 .363.096.677.288.944.192.267.448.5.768.704.32.203.688.384 1.104.544l1.296.496c.555.213 1.115.437 1.68.672.565.235 1.072.528 1.52.88.448.352.816.784 1.104 1.296.288.512.432 1.13.432 1.856 0 .64-.123 1.237-.368 1.792-.245.555-.608 1.045-1.088 1.472-.48.427-1.077.763-1.792 1.008-.715.245-1.53.368-2.448.368-1.11 0-2.165-.203-3.168-.608-1.003-.405-1.877-.917-2.624-1.536l1.312-1.76zm13.772-9.888H158.1v-1.984l2.432-.16.32-4.352h2.208v4.352h4.192v2.144h-4.192v8.64c0 .96.176 1.7.528 2.224.352.523.976.784 1.872.784.277 0 .576-.043.896-.128.32-.085.608-.18.864-.288l.512 1.984c-.427.15-.89.283-1.392.4-.5.117-.997.176-1.488.176-.832 0-1.53-.128-2.096-.384-.565-.256-1.024-.608-1.376-1.056-.352-.448-.603-.992-.752-1.632-.15-.64-.224-1.344-.224-2.112v-8.608z"/></g></svg>