<svg width="231" height="50" viewBox="0 0 231 50" xmlns="http://www.w3.org/2000/svg"><title>rescuetime</title><path d="M47.42 13.57H36.74V2.89c0-1.562-1.267-2.828-2.83-2.828H17.314c-1.562 0-2.83 1.266-2.83 2.828v10.68H3.804c-1.56 0-2.828 1.267-2.828 2.83v16.597c0 1.562 1.267 2.828 2.83 2.828h10.68v10.68c0 1.562 1.266 2.83 2.828 2.83H33.91c1.563 0 2.83-1.268 2.83-2.83v-10.68h10.68c1.562 0 2.83-1.266 2.83-2.83V16.4c0-1.563-1.268-2.83-2.83-2.83zM29.207 8.728l-3.69-5.494-3.69 5.494 2.283-.47v13.12c-.91.527-1.52 1.507-1.52 2.633 0 1.68 1.36 3.044 3.04 3.044s3.043-1.362 3.043-3.042c0-1.193-.69-2.224-1.69-2.722V8.27l2.224.458zM43.492 23.95l-4.226-2.838.288 1.4H29.72v2.875h9.834l-.288 1.402 4.226-2.84zm19.412 11.984V13.462h10.7c2.416 0 4.117.477 5.105 1.432.985.955 1.48 2.612 1.48 4.972 0 2.075-.27 3.52-.808 4.338-.538.817-1.563 1.347-3.078 1.588v.05c2.38.175 3.572 1.625 3.572 4.346v5.746H77.34v-5.17c0-2.622-1.135-3.934-3.407-3.934H65.44v9.104h-2.536zM65.44 24.69h7.325c1.932 0 3.25-.294 3.95-.88.703-.588 1.054-1.694 1.054-3.318 0-2.03-.263-3.353-.783-3.968-.52-.614-1.64-.922-3.35-.922h-8.2v9.087zm28.63 6.486h2.353l.017.577c0 1.635-.497 2.78-1.49 3.432-.994.653-2.736.98-5.227.98-2.897 0-4.8-.53-5.705-1.59-.905-1.06-1.358-3.284-1.358-6.676 0-3.14.455-5.248 1.366-6.324.91-1.075 2.694-1.613 5.35-1.613 2.898 0 4.797.466 5.697 1.4.9.932 1.35 2.897 1.35 5.894v1.235H85.096c0 2.48.267 4.06.8 4.74.53.68 1.774 1.022 3.728 1.022 1.854 0 3.06-.162 3.613-.486.554-.324.832-1.024.832-2.1v-.494zm0-4.478l-.018-.74c0-1.702-.28-2.808-.84-3.318-.56-.51-1.766-.766-3.62-.766-1.867 0-3.077.3-3.63.897-.555.6-.833 1.91-.833 3.93h8.94zm17.516-2.388h-2.305c0-1.097-.22-1.777-.665-2.04-.445-.264-1.59-.396-3.433-.396-1.71 0-2.798.14-3.26.42-.46.28-.69.952-.69 2.017 0 1.615.774 2.46 2.32 2.537l1.86.1 2.355.114c2.854.144 4.28 1.636 4.28 4.48 0 1.767-.472 2.98-1.416 3.64-.944.657-2.672.985-5.186.985-2.58 0-4.354-.312-5.326-.938-.972-.626-1.457-1.773-1.457-3.44l.018-.857h2.387l.016.74c0 1.032.265 1.72.79 2.066.53.346 1.566.52 3.113.52 1.9 0 3.147-.182 3.746-.544.597-.362.896-1.12.896-2.27 0-1.658-.752-2.487-2.255-2.487-3.5 0-5.802-.296-6.906-.89-1.103-.592-1.654-1.82-1.654-3.687 0-1.767.436-2.944 1.308-3.53.873-.587 2.61-.88 5.21-.88 4.17 0 6.256 1.256 6.256 3.77v.573h.002zm13.912 5.944h2.305l.016.856c0 3.37-2.208 5.054-6.62 5.054-2.83 0-4.703-.532-5.613-1.596-.912-1.064-1.367-3.26-1.367-6.585 0-3.118.464-5.233 1.392-6.347.928-1.114 2.692-1.67 5.293-1.67 2.557 0 4.302.375 5.235 1.127.933.752 1.4 2.165 1.4 4.24h-2.306v-.413c0-1.22-.302-2.03-.905-2.436-.606-.407-1.808-.61-3.607-.61-1.734 0-2.848.385-3.342 1.153-.493.77-.74 2.492-.74 5.17 0 2.612.28 4.274.848 4.988.564.713 1.884 1.07 3.958 1.07 1.756 0 2.87-.233 3.343-.7.47-.466.707-1.567.707-3.3zm17.698-10.058v15.738h-2.305l.167-2.058-.05-.05c-.8 1.56-2.514 2.338-5.137 2.338-3.677 0-5.516-1.833-5.516-5.5v-10.47h2.305v10.47c0 1.428.234 2.383.706 2.865.472.48 1.4.723 2.782.723 1.81 0 3.053-.36 3.728-1.078.675-.72 1.013-2.04 1.013-3.96v-9.02h2.305zm14.537 10.98h2.354l.017.577c0 1.635-.496 2.78-1.49 3.432-.993.653-2.735.98-5.227.98-2.897 0-4.8-.53-5.704-1.59-.906-1.06-1.358-3.284-1.358-6.676 0-3.14.455-5.248 1.366-6.324.913-1.075 2.696-1.613 5.353-1.613 2.897 0 4.796.466 5.695 1.4.9.932 1.35 2.897 1.35 5.894v1.235h-11.325c0 2.48.266 4.06.8 4.74.53.682 1.773 1.022 3.727 1.022 1.854 0 3.06-.162 3.613-.486.555-.324.83-1.024.83-2.1v-.494zm0-4.478l-.017-.74c0-1.702-.28-2.808-.84-3.318-.56-.51-1.767-.766-3.62-.766-1.867 0-3.077.3-3.63.897-.556.6-.833 1.91-.833 3.93h8.94zm16.89-9.418v18.653h-4.265V17.28h-6.486v-3.818h17.467v3.82m5.136-3.82v3.145h-3.77v-3.145h3.77zm0 6.734v15.738h-3.77V20.196h3.77zm3.03 0h3.77l-.1 2.42.084.017c.768-1.745 2.37-2.618 4.807-2.618 2.843 0 4.424.97 4.74 2.914h.067c.734-1.945 2.354-2.916 4.856-2.916 3.644 0 5.466 1.833 5.466 5.5v10.42h-3.77v-9.598c0-2.228-.917-3.342-2.75-3.342-2.294 0-3.44 1.246-3.44 3.737v9.204h-3.77V26.19c0-1.307-.174-2.166-.52-2.578-.346-.412-1.078-.617-2.197-.617-2.318 0-3.476 1.273-3.476 3.82v9.12h-3.77v-15.74zm37.684 10.7h3.786v.61c0 3.073-2.306 4.61-6.915 4.61-3.126 0-5.173-.533-6.14-1.598-.965-1.064-1.45-3.32-1.45-6.766 0-3.063.507-5.12 1.518-6.174 1.01-1.053 2.98-1.58 5.91-1.58 2.81 0 4.69.512 5.646 1.54.955 1.026 1.433 3.042 1.433 6.05v1.15h-10.652c-.02.353-.032.583-.032.692 0 1.548.238 2.58.716 3.095.477.516 1.43.774 2.855.774 1.383 0 2.283-.153 2.7-.455.417-.3.625-.95.625-1.95zm.033-4.46l-.017-.627c0-1.253-.217-2.064-.65-2.44-.434-.372-1.375-.56-2.823-.56-1.405 0-2.318.226-2.74.676-.424.45-.635 1.432-.635 2.947h6.865z" fill="#FFF" fill-rule="evenodd"/></svg>