<svg xmlns="http://www.w3.org/2000/svg" width="320" height="85" viewBox="0 0 320 85"><g fill="none" fill-rule="evenodd"><path fill="#FFF" d="M44.098 33.265L34 10.265l-18 41h36l-4.39-10H36v-8h8.098zM34 68.265c18.778 0 34-15.222 34-34s-15.222-34-34-34-34 15.222-34 34 15.222 34 34 34zM184.875 44.73h-.063l-3.072 7.535h-7.536l14.4-33.84h6.816l14.4 33.84h-7.728l-3.072-7.536h-7.412V38.2h4.772l-4.464-10.895-4.464 10.896h.066l-2.643 6.53zm-95.883 7.535h2.496v-13.92h10.992l10.704 13.92h3.168l-11.088-14.352c5.664-.768 9.84-3.984 9.84-9.6 0-2.496-.96-4.752-2.544-6.336-2.016-2.016-5.328-3.312-9.456-3.312H88.992v33.6zm2.496-16.176V20.97h11.472c6.096 0 9.648 2.83 9.648 7.343v.096c0 4.847-4.176 7.68-9.792 7.68H91.488zm48.324 11.615v4.56h2.352v-24.48h-2.352v14.16c0 5.088-3.696 8.736-8.496 8.736-4.944 0-7.776-3.31-7.776-8.35V27.784h-2.352V42.76c0 5.857 3.6 10.08 9.792 10.08 4.464 0 7.2-2.255 8.832-5.135zm9.78 4.56h2.352v-14.16c0-5.088 3.696-8.736 8.496-8.736 4.944 0 7.776 3.31 7.776 8.35v14.545h2.352V37.29c0-5.857-3.6-10.08-9.792-10.08-4.464 0-7.2 2.255-8.832 5.135v-4.56h-2.352v24.48zM239.01 39.45c0-8.69-5.712-13.393-11.712-13.393-3.792 0-6.24 1.776-8.016 4.176V17.225h-7.296v35.04h7.296v-3.36c1.728 2.064 4.128 3.84 8.016 3.84 6.096 0 11.712-4.704 11.712-13.296zm-19.824 0v-.097c0-4.272 2.832-7.104 6.24-7.104 3.408 0 6.288 2.83 6.288 7.103v.096c0 4.32-2.88 7.103-6.288 7.103-3.408 0-6.24-2.832-6.24-7.104zm49.542 0v-.097c0-7.392-5.904-13.296-13.872-13.296-8.016 0-13.968 6-13.968 13.392v.095c0 7.392 5.904 13.296 13.872 13.296 8.016 0 13.968-6 13.968-13.39zm-20.64 0v-.097c0-3.792 2.496-7.008 6.672-7.008 4.032 0 6.768 3.312 6.768 7.104v.095c0 3.792-2.496 7.008-6.672 7.008-4.032 0-6.768-3.312-6.768-7.104zm30.054 13.007h6.624l10.128-25.92h-7.584l-5.808 17.232-5.76-17.233h-7.728l10.128 25.92zm39.99-4.416l-4.176-3.695c-2.016 1.872-3.792 2.64-6.24 2.64-3.264 0-5.568-1.728-6.288-5.04h17.904c.048-.672.096-1.344.096-1.92 0-7.296-3.936-13.968-12.528-13.968-7.488 0-12.72 6.048-12.72 13.392v.095c0 7.872 5.712 13.296 13.44 13.296 4.656 0 8.112-1.823 10.512-4.8zm-16.8-10.655c.576-3.312 2.544-5.472 5.568-5.472 3.072 0 4.992 2.208 5.424 5.472h-10.992z"/><path fill="#FECC18" d="M13 60.265h6v6h-6v-6zm6 6h6v6h-6v-6zm6-6h6v6h-6v-6zm0 12h6v6h-6v-6zm6-6h6v6h-6v-6zm0 12h6v6h-6v-6zm6-18h6v6h-6v-6zm0 12h6v6h-6v-6zm6-6h6v6h-6v-6zm6-6h6v6h-6v-6z"/><path fill="#EF7B1A" d="M19 60.265h6v6h-6v-6zm6 6h6v6h-6v-6zm6 6h6v6h-6v-6zm6-6h6v6h-6v-6zm6-6h6v6h-6v-6z"/><path fill="#E84425" d="M31 60.265h6v6h-6z"/></g></svg>