<svg width="115" height="60" viewBox="0 0 115 60" xmlns="http://www.w3.org/2000/svg"><title>sncf</title><path d="M2.276.265C1.006.317.182.903.182 2.157v55.898c0 .976.7 1.858 1.775 1.858h99.786c.898 0 1.613-.083 2.033-1.268 0 0 10.115-31.647 10.294-32.22.374-1.2.13-1.802-.89-2.455C80.676 3.15 32.08.122 10.007.122c-3.166 0-5.782.062-7.732.143zm20.64 35.726c-3.662-1.767-6.16-2.69-5.558-4.47.71-2.107 4.395-2.906 7.73-2.83 1.69.04 2.89.256 4.263.573l1.215-3.814c-1.744-.32-2.99-.484-5.07-.533-6.69-.155-12.74 1.69-14.293 5.598-1.843 4.635 3.385 7.244 7.916 9.39 3.596 1.703 6.437 3.325 5.438 5.452-.776 1.648-3.322 2.425-7.023 2.34-3.202-.073-7.202-.99-10.35-2.58l-1.88 4.053c2.317 1.074 7.094 2.536 11.17 2.63 7.656.177 12.613-1.75 14.6-5.92 2.346-4.93-3.48-7.63-8.157-9.89zM33.3 42.954c.032.095.1.117.204.117.103 0 .152-.03.18-.118l3.73-11.558c3.758 5.38 7.49 12.455 9.488 19.927h6.128l3.03-9.463c.032-.097.1-.118.2-.118.106 0 .174.03.187.116.923 5.944 6.835 9.938 15.21 9.938 5.418 0 10.315-1.42 11.533-2.072l3.174-10h12.194L99.8 35.85H87.604l2.1-6.568h14.534l1.265-4.015H85.09l-6.925 21.657c-1.472.37-3.29.555-5.187.555-4.09 0-7.362-.974-9.217-3.14-1.392-1.63-1.946-3.728-1.602-6.068.822-5.58 6.256-9.107 13.523-9.107 1.53 0 3.104.095 4.524.276l1.434-4.21c-1.75-.27-3.87-.384-5.952-.384-6.446 0-12.05 2.218-15.682 6.13-.113.12-.23.118-.3.118-.113 0-.19-.022-.16-.118l1.823-5.71h-5.322L50.22 43.532c-1.852-5.39-5.664-12.48-10.325-18.267H34.18l-4.27 13.297c2.15 1.595 2.827 2.75 3.39 4.39z" fill="#FFF" fill-rule="evenodd"/></svg>