<svg width="160" height="33" viewBox="0 0 160 33" xmlns="http://www.w3.org/2000/svg"><title>soyoustart</title><path d="M24.83 5.27c-.458-.307-.443-.77.05-1.043L32.12.204c.486-.27 1.267-.274 1.76 0l7.24 4.023c.486.27.505.738.05 1.042l-7.34 4.89c-.458.306-1.205.304-1.66 0l-7.34-4.89zm6.67 8.945v8.5L21 12.215s-1.5-2-.64-3 2.14-.5 2.14-.5l9 5.5zm3 15.5s8.5-5 9.5-5.5 1-2.5-.5-3-6.5-.5-7.5-1-1.5-1-1.5-1v10.5zm12-11.5s-1-.5-2-.5c-5.5 0-8-1-8-3 0-1.5 4-4.5 6-5s4 .5 4 1v7.5zm-27-2.5v7l8 4.5s2 1 2.5-.5-2.5-4-2.5-4l-8-7zm-3 3.5v4.5l14.5 9-31-5.5 16.5-8zM64.075 9.28c-.057.095-.117.166-.18.214-.064.047-.146.07-.248.07-.107 0-.232-.053-.375-.16-.142-.108-.323-.227-.54-.357-.22-.13-.483-.248-.79-.356-.307-.106-.68-.16-1.116-.16-.412 0-.776.056-1.093.167-.316.11-.58.26-.793.45-.212.19-.372.414-.48.67-.107.257-.16.534-.16.832 0 .38.092.694.28.944.186.25.433.464.74.642.307.177.656.33 1.045.46.39.13.79.265 1.197.404.41.138.808.295 1.197.47.39.173.736.393 1.043.66.307.266.554.592.74.978.188.386.282.86.282 1.425 0 .595-.102 1.154-.304 1.677-.202.522-.5.977-.89 1.363-.387.386-.865.69-1.432.912-.568.222-1.212.332-1.934.332-.88 0-1.684-.16-2.41-.48-.724-.32-1.343-.75-1.856-1.296l.532-.872c.05-.07.112-.128.185-.176.073-.046.154-.07.242-.07.133 0 .284.07.456.214.17.142.384.3.64.47.257.17.568.328.932.47.364.143.81.214 1.334.214.437 0 .826-.06 1.17-.18.34-.12.63-.29.867-.51.238-.217.42-.478.547-.782.126-.305.19-.643.19-1.017 0-.412-.094-.75-.28-1.012-.188-.263-.433-.483-.737-.66-.304-.177-.65-.328-1.04-.45-.39-.125-.79-.25-1.197-.38-.41-.13-.808-.28-1.197-.453-.39-.17-.736-.392-1.04-.665-.305-.273-.55-.613-.737-1.022-.188-.408-.28-.913-.28-1.515 0-.48.092-.947.28-1.396.186-.45.457-.85.812-1.197.354-.35.793-.627 1.315-.837.523-.21 1.123-.313 1.8-.313.76 0 1.454.12 2.08.36.628.242 1.176.59 1.645 1.046l-.447.874zm7.026 1.71c.705 0 1.34.117 1.907.35.567.236 1.048.568 1.444 1 .397.43.7.95.913 1.562.212.61.318 1.293.318 2.047 0 .76-.105 1.442-.317 2.05-.212.61-.516 1.127-.912 1.56-.395.43-.876.76-1.443.99-.567.23-1.202.347-1.905.347-.702 0-1.337-.115-1.904-.346-.567-.23-1.05-.56-1.448-.992-.4-.432-.707-.95-.922-1.56-.215-.607-.323-1.29-.323-2.05 0-.755.108-1.437.323-2.048.215-.61.522-1.132.922-1.563.4-.432.88-.764 1.448-.998.567-.236 1.202-.353 1.905-.353zm0 8.588c.95 0 1.66-.318 2.13-.955.47-.636.703-1.524.703-2.665 0-1.146-.234-2.04-.703-2.678-.47-.64-1.18-.96-2.13-.96-.48 0-.898.082-1.253.247-.355.165-.65.402-.888.713-.24.31-.417.69-.534 1.144-.117.453-.176.964-.176 1.535 0 .57.06 1.077.177 1.527.117.45.294.828.532 1.135.235.307.53.543.886.708.355.166.773.248 1.254.248zm14.263 3.867c-.07.164-.16.29-.27.375-.112.085-.28.128-.51.128h-1.747l1.824-3.904-3.944-9.026h2.053c.19 0 .333.045.435.133.1.09.177.19.227.307l2.08 5.053c.07.164.13.335.18.512.052.178.096.355.135.533.05-.184.106-.36.166-.532.06-.172.125-.346.195-.523l1.956-5.044c.05-.127.134-.232.25-.314.118-.082.25-.123.395-.123l1.88-.003-5.31 12.427zm10.826-12.58c.727 0 1.39.12 1.98.353.592.234 1.097.567 1.515.998.418.43.74.956.97 1.577.227.62.34 1.314.34 2.08 0 .773-.113 1.47-.34 2.09-.23.62-.552 1.15-.97 1.586-.418.436-.923.77-1.515 1.005-.593.235-1.254.352-1.982.352s-1.39-.117-1.986-.352c-.595-.234-1.103-.57-1.524-1.007-.42-.438-.748-.966-.98-1.587-.23-.62-.345-1.316-.345-2.09 0-.765.115-1.46.346-2.08.23-.62.556-1.146.977-1.576.42-.43.93-.764 1.525-.998.595-.234 1.257-.35 1.985-.35v-.002zm0 8.238c.81 0 1.41-.272 1.8-.817.39-.545.584-1.343.584-2.394 0-1.05-.195-1.852-.585-2.403-.39-.554-.99-.83-1.8-.83-.824 0-1.43.278-1.825.83-.393.556-.59 1.356-.59 2.4s.197 1.84.59 2.39c.393.548 1 .82 1.824.82zm9.086-8.085v6.194c0 .596.138 1.057.414 1.383.274.326.687.49 1.24.49.404 0 .784-.09 1.138-.272.355-.18.69-.43 1.008-.745v-7.05h2.346v9.747h-1.434c-.305 0-.504-.142-.6-.427l-.16-.78c-.203.204-.412.39-.627.557-.214.168-.443.31-.687.427-.244.117-.507.21-.79.276-.28.066-.583.1-.906.1-.532 0-1.002-.09-1.41-.27-.41-.182-.753-.437-1.03-.766-.28-.33-.49-.72-.633-1.173-.143-.455-.214-.954-.214-1.5v-6.193h2.345zM125.57 9.28c-.058.095-.118.166-.18.214-.065.047-.147.07-.25.07-.106 0-.23-.053-.374-.16-.142-.108-.323-.227-.54-.357-.22-.13-.483-.248-.79-.356-.307-.106-.68-.16-1.116-.16-.412 0-.776.056-1.092.167-.317.11-.582.26-.794.45-.212.19-.372.414-.48.67-.107.257-.16.534-.16.832 0 .38.092.694.28.944.186.25.433.464.74.642.307.177.656.33 1.045.46.39.13.787.265 1.195.404.41.138.808.295 1.197.47.39.173.738.393 1.045.66.307.266.554.592.74.978.188.386.282.86.282 1.425 0 .595-.103 1.154-.305 1.677-.203.522-.5.977-.89 1.363-.388.386-.866.69-1.433.912-.567.222-1.21.332-1.933.332-.88 0-1.685-.16-2.41-.48-.725-.32-1.344-.75-1.857-1.296l.532-.872c.05-.07.112-.128.185-.176.074-.046.155-.07.244-.07.133 0 .284.07.456.214.17.142.384.3.64.47.257.17.568.328.932.47.364.143.81.214 1.335.214.437 0 .826-.06 1.168-.18.342-.12.632-.29.87-.51.237-.217.42-.478.545-.782.127-.305.19-.643.19-1.017 0-.412-.093-.75-.28-1.012-.187-.263-.432-.483-.736-.66-.304-.177-.65-.328-1.04-.45-.39-.125-.79-.25-1.197-.38-.41-.13-.808-.28-1.197-.453-.39-.17-.736-.392-1.04-.665-.305-.273-.55-.613-.737-1.022-.187-.408-.28-.913-.28-1.515 0-.48.093-.947.28-1.396.187-.45.458-.85.813-1.197.354-.35.793-.627 1.315-.837.525-.21 1.125-.313 1.803-.313.76 0 1.453.12 2.08.36.627.242 1.175.59 1.644 1.046l-.447.874zm6.047 11.638c-.76 0-1.345-.213-1.753-.637-.41-.422-.613-1.033-.613-1.83v-5.89h-1.157c-.1 0-.187-.03-.257-.09s-.104-.155-.104-.28v-.677l1.578-.2.39-2.973c.012-.096.053-.173.123-.233.07-.06.16-.09.267-.09h.855v3.315h2.755v1.225h-2.755v5.777c0 .405.098.706.294.902.196.196.45.294.76.294.177 0 .33-.023.46-.07.13-.048.243-.1.34-.158.093-.057.173-.11.24-.156.066-.048.125-.072.176-.072.088 0 .167.054.237.162l.494.808c-.29.272-.643.486-1.054.64-.412.156-.836.233-1.273.233zm11.538-.152h-.75c-.165 0-.298-.026-.4-.076-.1-.05-.167-.16-.2-.324l-.19-.892c-.252.228-.5.432-.74.612s-.494.333-.76.456c-.266.124-.55.217-.85.28-.3.064-.635.096-1.002.096-.374 0-.724-.053-1.05-.157-.326-.103-.61-.26-.85-.47-.24-.21-.433-.472-.575-.792-.143-.32-.214-.698-.214-1.135 0-.38.104-.746.313-1.097.21-.352.547-.664 1.012-.936.464-.273 1.073-.497 1.827-.67.754-.175 1.675-.275 2.764-.3v-.75c0-.748-.16-1.313-.48-1.696-.32-.383-.79-.575-1.42-.575-.41 0-.757.05-1.04.155-.28.104-.524.22-.73.35-.206.13-.383.248-.532.353-.15.103-.297.155-.443.155-.114 0-.214-.03-.3-.09-.085-.06-.153-.134-.203-.223l-.304-.54c.532-.515 1.105-.898 1.72-1.15.613-.254 1.294-.38 2.042-.38.538 0 1.016.088 1.434.265.418.177.77.424 1.055.74.285.318.5.7.646 1.15.145.45.218.944.218 1.482v6.155zm-4.39-1.036c.3 0 .57-.03.818-.09.247-.06.48-.146.698-.257.22-.11.43-.245.63-.403.2-.16.393-.34.584-.542v-2.005c-.78.026-1.44.088-1.986.186-.545.096-.988.224-1.33.382-.342.16-.59.346-.746.56-.154.216-.232.457-.232.723 0 .253.042.472.124.655.082.185.193.336.333.453.14.117.303.202.494.256.19.052.395.08.617.08zm7.255 1.035v-9.623h.97c.183 0 .31.035.38.104.07.07.116.19.142.36l.113 1.502c.33-.67.737-1.195 1.22-1.572.486-.377 1.054-.565 1.707-.565.266 0 .506.03.722.09.215.06.414.146.598.254l-.22 1.263c-.043.16-.14.238-.293.238-.09 0-.227-.03-.41-.09-.184-.06-.44-.09-.77-.09-.59 0-1.08.17-1.477.512-.396.343-.727.84-.993 1.492v6.126h-1.69zm10.873.152c-.76 0-1.344-.212-1.752-.636-.407-.422-.61-1.033-.61-1.83v-5.89h-1.16c-.1 0-.187-.03-.256-.09-.07-.06-.105-.155-.105-.28v-.677l1.576-.2.39-2.973c.012-.096.053-.173.123-.233.07-.06.157-.09.265-.09h.855v3.315h2.754v1.225h-2.755v5.777c0 .405.096.706.292.902.197.196.45.294.76.294.178 0 .33-.023.46-.07.13-.048.243-.1.338-.158.097-.057.177-.11.244-.156.066-.048.125-.072.175-.072.087 0 .166.054.236.162l.494.808c-.29.272-.642.486-1.053.64-.412.156-.836.233-1.274.233z" fill="#FFF" fill-rule="evenodd"/></svg>