<svg width="300" height="52" viewBox="0 0 300 52" xmlns="http://www.w3.org/2000/svg"><title>vente-privee</title><path d="M127.383 34.408V32.18h-9.676v4.46-.003h9.676v-2.23zm-115.91 5.05l7.804-13.825h3.68l-9.645 16.984h-3.67L0 25.633h3.676l7.797 13.824zm17.132-4.51v.693c0 1.85.61 3.088 1.844 3.685.81.387 2.303.598 4.467.598h10.285v2.914h-11.96c-2.345 0-4.138-.383-5.384-1.16-1.786-1.106-2.68-3.043-2.68-5.86V32.27c0-2.79.898-4.72 2.707-5.782 1.27-.746 3.156-1.125 5.672-1.125h4.577c2.703 0 4.652.39 5.832 1.164 1.596 1.02 2.39 2.95 2.39 5.785v2.633H28.604v.004zm38.817 7.67V31.9c0-1.43-.55-2.44-1.64-3.01-.774-.412-1.966-.638-3.583-.677h-2.675c-2.085 0-3.526.156-4.31.45-1.255.468-1.876 1.503-1.876 3.085v10.867h-3.423v-11.55c0-2 .852-3.493 2.547-4.473 1.398-.81 3.172-1.227 5.32-1.227h5.903c2.128 0 3.808.438 5.03 1.31 1.427 1.01 2.13 2.522 2.13 4.553v11.387H67.42zm22.6.222h-8.448c-2.746 0-4.63-.574-5.636-1.766-.735-.84-1.094-2.187-1.094-4.062V18.785h3.426v6.55h8.3v2.91h-8.3v8.044c0 1.467.25 2.436.765 2.912.516.477 1.524.723 3 .723h8.016l-.026 2.914zm6.373-7.89v.69c0 1.848.617 3.087 1.843 3.684.81.387 2.305.598 4.473.598h10.28v2.914h-11.96c-2.34 0-4.134-.383-5.384-1.16-1.786-1.106-2.668-3.043-2.668-5.86V32.27c0-2.79.894-4.72 2.703-5.782 1.266-.746 3.153-1.125 5.67-1.125h4.577c2.703 0 4.644.39 5.832 1.164 1.593 1.02 2.39 2.95 2.39 5.785v2.633H96.394v.004zm48.035 7.89h-4.77c-2.168 0-3.86-.25-5.086-.75v6.22h-3.43V32.675c0-4.864 2.668-7.305 7.993-7.305h5.734c5.28 0 7.928 2.396 7.928 7.2v2.883c0 2.777-.72 4.746-2.156 5.875-1.292 1.012-3.355 1.512-6.21 1.512zm19.738-14.55c-1.176 0-2.148.323-2.898.956-.75.645-1.133 1.54-1.133 2.688v10.683h-3.418V31.395c0-1.84.623-3.313 1.865-4.418 1.18-1.075 2.707-1.61 4.586-1.61h12.37v2.922h-11.37zm15.258-5.876V18.75h3.418v3.664h-3.418zm0 20.203V25.633h3.418v16.984h-3.418zm17.02-3.16l7.812-13.824h3.66l-9.633 16.984h-3.68l-9.636-16.984h3.666l7.808 13.824zm17.12-4.508v.69c0 1.847.62 3.086 1.844 3.683.82.387 2.31.598 4.48.598h10.282v2.915h-11.96c-2.35 0-4.134-.383-5.388-1.16-1.78-1.106-2.672-3.043-2.672-5.86V32.27c0-2.79.9-4.72 2.71-5.782 1.27-.746 3.158-1.125 5.665-1.125h4.575c2.707 0 4.652.39 5.843 1.164 1.594 1.02 2.383 2.95 2.383 5.785v2.633h-17.762v.004zm24 0v.69c0 1.847.606 3.086 1.83 3.683.82.387 2.315.598 4.475.598h10.287v2.915H242.2c-2.348 0-4.145-.383-5.38-1.16-1.797-1.106-2.687-3.043-2.687-5.86V32.27c0-2.79.906-4.72 2.72-5.782 1.26-.746 3.147-1.125 5.663-1.125h4.574c2.707 0 4.656.39 5.832 1.164 1.598 1.02 2.39 2.95 2.39 5.785v2.633h-17.746v.004zm-195.95-6.13c-.616-.356-1.85-.536-3.675-.536h-4.005c-1.914 0-3.18.172-3.81.508-.878.484-1.39 1.566-1.515 3.238h14.33c0-1.632-.436-2.702-1.323-3.21zm69.122 3.21c0-1.633-.44-2.703-1.324-3.21-.625-.356-1.855-.536-3.684-.536h-4c-1.918 0-3.187.172-3.816.508-.88.484-1.383 1.566-1.516 3.238h14.34zm38.633.582c0-1.636-.346-2.765-1.045-3.383-.695-.633-1.88-.94-3.554-.94h-5.5c-3.13 0-4.695 1.522-4.695 4.576v3.082c0 1.538.473 2.632 1.414 3.245.75.47 1.964.73 3.636.73h4.922c1.687 0 2.89-.265 3.59-.804.824-.586 1.23-1.703 1.23-3.336v-3.172h.004zm78.55-.582c0-1.632-.45-2.702-1.333-3.21-.617-.355-1.848-.535-3.672-.535h-4.004c-1.93 0-3.19.172-3.815.508-.875.484-1.383 1.566-1.528 3.238h14.352zm23.976 0c0-1.632-.434-2.702-1.325-3.21-.62-.355-1.85-.535-3.682-.535h-4c-1.922 0-3.188.172-3.81.508-.882.484-1.39 1.566-1.51 3.238h14.328zm46.066-1.845c-.518.036-1.997 1.726-4.98 4.312 4.137-5.09 9.01-17.408 3.274-30.976-.775.474-3.214 1.76-5.62 7.1C286.46 3.976 279.95 0 279.95 0s-10.68 10.873-5.54 31.32c-14.616 4.363-11.337 11.268-7.004 16.596.122.158.25.314.38.468 0 0-4.548-7.192-1.772-10.296 0 0 1.01-1.648 5.268-3.31 2.696-1.058 4.262-1.16 4.262-1.16-.843-8.226-1.02-18.06 5.186-27.664.57.402 9.242 5.227 11.14 19.307.537 7.52-6.015 14.826-9.702 17.094-3.76 2.258-8.427 4.592-13.95 6.864-1.81.745-3.704 1.48-5.716 2.193 0 0 22.02-3.057 36.53-19.622-.005 0 1.057-1.74-1.068-1.602zm-4.242-10.47c-.244-2.61-1.04-5.02-2.13-7.197l-.014-.02c1.803-3.81 3.194-4.547 3.194-4.547s7.28 18.59-7.153 30.363c-.118.08-.47.34-.542.398 3.82-3.37 7.73-9.262 6.645-18.993z" fill="#FFF" fill-rule="evenodd"/></svg>