<svg xmlns="http://www.w3.org/2000/svg" width="505" height="265" viewBox="0 0 505 265"><defs><linearGradient id="a" x1="24.618%" x2="81.481%" y1="4.525%" y2="79.497%"><stop stop-color="#EE7203" offset="0%"/><stop stop-color="#F49600" offset="31.11%"/><stop stop-color="#F9AF00" offset="59.73%"/><stop stop-color="#FCBE00" offset="83.66%"/><stop stop-color="#FDC300" offset="100%"/></linearGradient><linearGradient id="b" x1="-14.766%" x2="81.457%" y1="-56.772%" y2="101.869%"><stop stop-color="#EE7203" offset="0%"/><stop stop-color="#F49600" offset="31.11%"/><stop stop-color="#F9AF00" offset="59.73%"/><stop stop-color="#FCBE00" offset="83.66%"/><stop stop-color="#FDC300" offset="100%"/></linearGradient><linearGradient id="c" x1="32.741%" x2="60.175%" y1="22.724%" y2="76.677%"><stop stop-color="#C8D400" offset="0%"/><stop stop-color="#13A538" offset="100%"/></linearGradient><linearGradient id="d" x1="11.541%" x2="92.692%" y1="-15.012%" y2="99.255%"><stop stop-color="#C8D400" offset="0%"/><stop stop-color="#13A538" offset="100%"/></linearGradient><linearGradient id="e" x1="-37.225%" x2="82.761%" y1="-54.366%" y2="89.197%"><stop stop-color="#C8D400" offset="0%"/><stop stop-color="#13A538" offset="100%"/></linearGradient><linearGradient id="f" x1="-75.29%" x2="33.271%" y1="-258.636%" y2="8.829%"><stop stop-color="#C8D400" offset="0%"/><stop stop-color="#13A538" offset="100%"/></linearGradient><linearGradient id="g" x1="51.637%" x2="101.404%" y1="48.15%" y2="324.797%"><stop stop-color="#71196F" offset="0%"/><stop stop-color="#C70C6F" offset="24.72%"/><stop stop-color="#D10866" offset="41.42%"/><stop stop-color="#DC015A" offset="64.68%"/><stop stop-color="#E30053" offset="85%"/><stop stop-color="#E50051" offset="100%"/></linearGradient><linearGradient id="h" x1="47.672%" x2="109.169%" y1="32.695%" y2="409.196%"><stop stop-color="#71196F" offset="0%"/><stop stop-color="#C70C6F" offset="24.72%"/><stop stop-color="#D10866" offset="41.42%"/><stop stop-color="#DC015A" offset="64.68%"/><stop stop-color="#E30053" offset="85%"/><stop stop-color="#E50051" offset="100%"/></linearGradient><linearGradient id="i" x1="44.53%" x2="78.447%" y1="25.28%" y2="154.122%"><stop stop-color="#71196F" offset="0%"/><stop stop-color="#C70C6F" offset="24.72%"/><stop stop-color="#D10866" offset="41.42%"/><stop stop-color="#DC015A" offset="64.68%"/><stop stop-color="#E30053" offset="85%"/><stop stop-color="#E50051" offset="100%"/></linearGradient><linearGradient id="j" x1="44.607%" x2="108.816%" y1="35.013%" y2="270.667%"><stop stop-color="#71196F" offset="0%"/><stop stop-color="#C70C6F" offset="24.72%"/><stop stop-color="#D10866" offset="41.42%"/><stop stop-color="#DC015A" offset="64.68%"/><stop stop-color="#E30053" offset="85%"/><stop stop-color="#E50051" offset="100%"/></linearGradient><linearGradient id="k" x1="27.735%" x2="195.523%" y1="21.692%" y2="226.157%"><stop stop-color="#71196F" offset="0%"/><stop stop-color="#C70C6F" offset="24.72%"/><stop stop-color="#D10866" offset="41.42%"/><stop stop-color="#DC015A" offset="64.68%"/><stop stop-color="#E30053" offset="85%"/><stop stop-color="#E50051" offset="100%"/></linearGradient><linearGradient id="l" x1="21.825%" x2="164.604%" y1="16.936%" y2="183.007%"><stop stop-color="#71196F" offset="0%"/><stop stop-color="#C70C6F" offset="24.72%"/><stop stop-color="#D10866" offset="41.42%"/><stop stop-color="#DC015A" offset="64.68%"/><stop stop-color="#E30053" offset="85%"/><stop stop-color="#E50051" offset="100%"/></linearGradient><linearGradient id="m" x1="37.657%" x2="92.237%" y1="15.681%" y2="145.302%"><stop stop-color="#71196F" offset="0%"/><stop stop-color="#C70C6F" offset="24.72%"/><stop stop-color="#D10866" offset="41.42%"/><stop stop-color="#DC015A" offset="64.68%"/><stop stop-color="#E30053" offset="85%"/><stop stop-color="#E50051" offset="100%"/></linearGradient><linearGradient id="n" x1="41.721%" x2="117.046%" y1="15.152%" y2="117.805%"><stop stop-color="#71196F" offset="0%"/><stop stop-color="#C70C6F" offset="24.72%"/><stop stop-color="#D10866" offset="41.42%"/><stop stop-color="#DC015A" offset="64.68%"/><stop stop-color="#E30053" offset="85%"/><stop stop-color="#E50051" offset="100%"/></linearGradient><linearGradient id="o" x1="-30.188%" x2="84.572%" y1="-169.192%" y2="144.401%"><stop stop-color="#71196F" offset="0%"/><stop stop-color="#C70C6F" offset="24.72%"/><stop stop-color="#D10866" offset="41.42%"/><stop stop-color="#DC015A" offset="64.68%"/><stop stop-color="#E30053" offset="85%"/><stop stop-color="#E50051" offset="100%"/></linearGradient><linearGradient id="p" x1="16.555%" x2="71.129%" y1="-33.821%" y2="95.177%"><stop stop-color="#71196F" offset="0%"/><stop stop-color="#C70C6F" offset="24.72%"/><stop stop-color="#D10866" offset="41.42%"/><stop stop-color="#DC015A" offset="64.68%"/><stop stop-color="#E30053" offset="85%"/><stop stop-color="#E50051" offset="100%"/></linearGradient><linearGradient id="q" x1="10.989%" x2="58.616%" y1="-55.958%" y2="72.947%"><stop stop-color="#71196F" offset="0%"/><stop stop-color="#C70C6F" offset="24.72%"/><stop stop-color="#D10866" offset="41.42%"/><stop stop-color="#DC015A" offset="64.68%"/><stop stop-color="#E30053" offset="85%"/><stop stop-color="#E50051" offset="100%"/></linearGradient><linearGradient id="r" x1="14.279%" x2="45.529%" y1="-76.411%" y2="42.246%"><stop stop-color="#71196F" offset="0%"/><stop stop-color="#C70C6F" offset="24.72%"/><stop stop-color="#D10866" offset="41.42%"/><stop stop-color="#DC015A" offset="64.68%"/><stop stop-color="#E30053" offset="85%"/><stop stop-color="#E50051" offset="100%"/></linearGradient><linearGradient id="s" x1="111.85%" x2="39.645%" y1="197.257%" y2="20.981%"><stop stop-color="#004F9F" offset="4.81%"/><stop stop-color="#006EB8" offset="36.16%"/><stop stop-color="#0084CC" offset="65.48%"/><stop stop-color="#0091D7" offset="87.62%"/><stop stop-color="#0095DB" offset="100%"/></linearGradient><linearGradient id="t" x1="-3.606%" x2="-148.23%" y1="-239.213%" y2="-1000.526%"><stop stop-color="#004F9F" offset="4.81%"/><stop stop-color="#006EB8" offset="36.16%"/><stop stop-color="#0084CC" offset="65.48%"/><stop stop-color="#0091D7" offset="87.62%"/><stop stop-color="#0095DB" offset="100%"/></linearGradient><linearGradient id="u" x1="42.907%" x2="-107.391%" y1="46.002%" y2="-398.93%"><stop stop-color="#004F9F" offset="4.81%"/><stop stop-color="#006EB8" offset="36.16%"/><stop stop-color="#0084CC" offset="65.48%"/><stop stop-color="#0091D7" offset="87.62%"/><stop stop-color="#0095DB" offset="100%"/></linearGradient><linearGradient id="v" x1="52.569%" x2="39.325%" y1="63.92%" y2="6.422%"><stop stop-color="#004F9F" offset="4.81%"/><stop stop-color="#006EB8" offset="36.16%"/><stop stop-color="#0084CC" offset="65.48%"/><stop stop-color="#0091D7" offset="87.62%"/><stop stop-color="#0095DB" offset="100%"/></linearGradient><linearGradient id="w" x1="93.142%" x2="14.633%" y1="142.908%" y2="-40.16%"><stop stop-color="#004F9F" offset="4.81%"/><stop stop-color="#006EB8" offset="36.16%"/><stop stop-color="#0084CC" offset="65.48%"/><stop stop-color="#0091D7" offset="87.62%"/><stop stop-color="#0095DB" offset="100%"/></linearGradient><linearGradient id="x" x1="66.234%" x2=".924%" y1="115.171%" y2="-104.61%"><stop stop-color="#004F9F" offset="4.81%"/><stop stop-color="#006EB8" offset="36.16%"/><stop stop-color="#0084CC" offset="65.48%"/><stop stop-color="#0091D7" offset="87.62%"/><stop stop-color="#0095DB" offset="100%"/></linearGradient><linearGradient id="y" x1="62.342%" x2="-56.171%" y1="112.92%" y2="-478.784%"><stop stop-color="#004F9F" offset="4.81%"/><stop stop-color="#006EB8" offset="36.16%"/><stop stop-color="#0084CC" offset="65.48%"/><stop stop-color="#0091D7" offset="87.62%"/><stop stop-color="#0095DB" offset="100%"/></linearGradient><linearGradient id="z" x1="53.189%" x2="-70.953%" y1="62.033%" y2="-335.051%"><stop stop-color="#004F9F" offset="4.81%"/><stop stop-color="#006EB8" offset="36.16%"/><stop stop-color="#0084CC" offset="65.48%"/><stop stop-color="#0091D7" offset="87.62%"/><stop stop-color="#0095DB" offset="100%"/></linearGradient></defs><g fill="none" fill-rule="evenodd"><path fill="#FFF" d="M504.75 209.088c.325 3.1-1.942 5.907-5.047 6.233L27.897 264.908c-3.102.322-5.902-1.945-6.23-5.047L.305 56.56c-.328-3.1 1.942-5.902 5.043-6.227L477.153.743c3.1-.326 5.905 1.942 6.23 5.043l21.366 203.302z"/><path fill="url(#a)" d="M14.812 6.672L.247 8.202 24.13 53.93l8.608-9.994" transform="translate(58 74)"/><path fill="url(#b)" d="M69.774.895L55.722 2.37 50.57 23.232 69.756.958" transform="translate(58 74)"/><path fill="url(#c)" d="M65.848 51.092c-.812-7.746 2.873-16.39 12.69-17.418 9.813-1.035 15.214 6.654 16.03 14.402.175 1.685.13 3.42-.136 5.114l12.39-8.718c-2.62-14.197-15.117-22.42-29.35-20.92-8.603.9-15.842 5.157-20.146 11.56l7.43-26.155L45.57 31.232l-9.285 37.58-.406.04-8.142-16.917-8.607 9.994 12.73 24.376 11.262-1.19L53.11 49.96c.015.81.05 1.627.138 2.46.982 9.34 6.1 16.503 13.256 20.426l10.533-7.413c-6.745-1.547-10.52-7.99-11.19-14.34z" transform="translate(63 66)"/><path fill="url(#d)" d="M106.834 4.476l-14.64 1.536 19.575 34.983 10.066-7.078" transform="translate(63 66)"/><path fill="url(#e)" d="M148.663.074l-13.76 1.45-6.288 27.617 14.99-10.544" transform="translate(63 66)"/><path fill="url(#f)" d="M18.668 104.375c-9.065.95-17.77 5.982-18.135 15.456l22.156-15.585c-1.345-.036-2.693-.01-4.022.13z" transform="translate(63 66)"/><g><path fill="url(#g)" d="M212.207 54.49c-2.498.263-5.102.09-7.654-.44l-16.13 5.976c7.027 4.062 16.384 6.072 24.796 5.182 20.014-2.1 25.94-13.865 27.108-24.398l-13.573 5.027c-2.4 4.978-7.252 7.888-14.548 8.652z" transform="translate(63 77)"/><path fill="url(#h)" d="M266.503 45.84c9.403-.986 16.084-5.035 20.244-12.153l-8.96-5.745c-2.378 4.222-6.25 7.13-12.447 7.784-2.757.292-5.472-.187-7.846-1.266l-12.768 4.72c5.385 5.176 13.107 7.57 21.777 6.66z" transform="translate(63 77)"/><path fill="url(#i)" d="M301.612 19.3c9.5 1.93 17.374 3.29 18.177 10.938.826 7.85-5.99 11.595-12.085 12.233-5.786.607-12.73-1.792-16.862-6.375l-8.383 9.66c6.502 6.21 16.692 8.794 26.202 7.79 14.36-1.504 25.85-10.445 24.2-26.147-.424-4.02-1.723-7.108-3.555-9.56l29.334-3.08-1.454-13.85-12.66 1.332-19.836 7.344.45 4.27c-1.527-1.06-3.21-1.895-4.952-2.605l-20.58 7.62c.665.154 1.338.296 2.004.43z" transform="translate(63 77)"/><path fill="url(#j)" d="M28.86 129.694c.465 4.443-3.722 6.35-7.338 6.73-5.37.564-10.302-1.63-13.355-4.857L.81 140.06c5.304 4.774 13.56 6.83 21.208 6.028 10.846-1.14 20.194-6.62 18.923-18.702-.528-5.04-3.222-8.098-6.73-10.027l-17.338 6.42c7.64.955 11.557 1.806 11.988 5.914z" transform="translate(63 77)"/><path fill="url(#k)" d="M48.312 141.863l12.395-1.307-2.864-27.274c-.167-1.575-.114-3.174.155-4.723l-12.692 4.693 3.006 28.61z" transform="translate(63 77)"/><path fill="url(#l)" d="M78.688 110.883l2.887 27.48 12.397-1.305-3.254-30.988c-.323-3.066-1.146-6.057-2.48-8.708l-12.363 4.58c1.75 2.455 2.49 5.87 2.813 8.94z" transform="translate(63 77)"/><path fill="url(#m)" d="M97.396 111.627c1.736 16.533 14.948 24.968 29.617 23.426 7.337-.77 13.89-3.966 17.56-8.842l-8.575-7.042c-2.07 3.148-6.144 5.14-9.966 5.542-9.4.987-14.906-6.682-15.722-14.435-.815-7.75 2.872-16.387 11.965-17.342 4.03-.424 8.48 1.198 10.74 3.785l7.688-8.33c-3.084-3.086-7.81-5.04-12.834-5.695L103 91.896c-4.208 5.034-6.438 11.81-5.604 19.73z" transform="translate(63 77)"/><path fill="url(#n)" d="M178.278 85.22l-11.47 1.198-.54-5.105c-.517-4.96.07-11.29 7.2-12.04 1.756-.18 3.438-.047 4.83.224l-.15-5.59-23.744 8.79c-.765 3.293-.844 6.92-.454 10.64l.463 4.393-9.4.98 1.038 9.917 9.406-.984 3.424 32.6 12.396-1.302-3.425-32.602 11.468-1.205-1.04-9.913z" transform="translate(63 77)"/><path fill="url(#o)" d="M189.814 105.79c-6.17.643-10.703 6.074-10.068 12.11.634 6.026 6.447 10.094 12.333 9.48 6.173-.648 10.703-6.093 10.067-12.12-.628-6.03-6.307-10.108-12.333-9.47z" transform="translate(63 77)"/><path fill="url(#p)" d="M232.083 81.395c4.033-.423 8.484 1.198 10.737 3.78l7.69-8.327c-4.435-4.442-12.278-6.55-19.513-5.785-14.566 1.527-25.487 12.91-23.793 29.027 1.736 16.53 14.95 24.965 29.618 23.426 7.336-.777 13.894-3.972 17.557-8.85l-8.57-7.034c-2.072 3.142-6.143 5.132-9.967 5.537-9.4.986-14.914-6.685-15.724-14.436-.815-7.75 2.873-16.382 11.963-17.34z" transform="translate(63 77)"/><path fill="url(#q)" d="M276.92 66.24c-14.98 1.57-25.87 13.263-24.23 28.862 1.645 15.602 14.768 25.19 29.747 23.62 14.98-1.58 25.82-13.687 24.184-29.284-1.64-15.6-14.722-24.777-29.7-23.2zm4.43 42.145c-9.814 1.032-15.24-6.855-16.05-14.607-.814-7.746 2.87-16.387 12.687-17.417 9.812-1.03 15.217 6.652 16.03 14.405.816 7.74-2.852 16.588-12.667 17.62z" transform="translate(63 77)"/><path fill="url(#r)" d="M368.69 56.588c-7.434.78-12.66 4.783-15.332 11.12-3.377-5.28-8.84-8.58-16.484-7.772-7.957.833-12.744 5.935-14.405 11.02l-.21.024-.833-7.96-11.774 1.238 5.21 49.586 12.395-1.303-2.867-27.273c-.692-6.608 1.998-13.787 9.434-14.568 6.304-.657 9.688 3.686 10.328 9.777l3.148 29.96 12.4-1.3-2.848-27.07c-.672-6.405 1.767-13.97 9.514-14.786 7.955-.835 10.07 6.36 10.69 12.25l2.89 27.478 12.397-1.306-3.258-30.986c-1.065-10.126-7.478-19.483-20.395-18.128z" transform="translate(63 77)"/></g><g><path fill="url(#s)" d="M107.175 60.75c-.082-.776-.215-1.526-.354-2.276l-12.388 8.718c-.95 6.108-4.85 11.702-12.527 12.51-1.77.184-3.39.075-4.87-.268l-10.532 7.413c4.785 2.627 10.48 3.818 16.485 3.186 14.982-1.577 25.825-13.68 24.187-29.283z" transform="translate(63 52)"/><path fill="url(#t)" d="M324.146 29.382l.544 5.202 19.836-7.343" transform="translate(63 52)"/><path fill="url(#u)" d="M192.34 73.038l-.636-.576-6.76 10.244.56.416c.914.674 1.894 1.31 2.918 1.904l16.13-5.975c-4.556-.934-8.94-3.034-12.213-6.012z" transform="translate(63 52)"/><path fill="url(#v)" d="M118.487 77.458c-1.623 5.732-2.876 8.648-8.49 9.238-1.43.15-3.214.115-5.032-.256l.1 11.572c2.37.305 4.707.283 6.906.05 11.67-1.226 15.716-7.216 18.45-17.19l10.79-39.492 4.937 4.713c2.868-3.54 7.666-6.554 12.935-7.105 6.2-.65 11.683 1.806 12.32 7.9l.132 1.24c-15.494 1.628-33.872 5.646-32.322 20.42 1.216 11.57 12.26 14.278 20.214 13.438 7.027-.738 12.575-4.557 14.6-9.158l.31-.03.66 6.3 11.573-1.222-2.853-27.123c5.333 8.948 15.148 14.042 26.59 12.84 7.387-.776 13.92-4.55 17.494-10.005l.526 4.975c.52 4.96-.02 9.05-1.57 12.273l13.572-5.027c.278-2.493.287-4.915.16-7.124 1.164 2.09 2.596 3.92 4.238 5.494l12.768-4.72c-3.855-1.763-6.81-5.122-7.588-9.438l37.705-3.96c-.013-1.15-.123-2.18-.24-3.32-.188-1.77-.487-3.415-.85-4.99 3.565 3.374 8.348 5.03 13.087 6.117l20.58-7.62c-3.58-1.455-7.44-2.3-10.96-2.986-8.534-1.72-14.426-3.08-15.13-9.8-.752-7.124 5.87-10.745 11.862-11.372 5.163-.545 10.917 1.567 14.09 4.89l7.496-10.187C321.41 2.11 312.774.405 305.44 1.177c-13.224 1.394-26.065 9.426-24.5 24.303.015.167.054.32.07.48-4.924-5.925-12.174-8.427-20.433-7.56-11.032 1.158-19.422 7.828-22.42 17.653l-3.263-31.06-11.73 1.232.765 7.268c-4.738-5.068-11.956-7.576-19.713-6.76-15.396 1.612-25.52 13.976-24.694 29.688-3.507-5.01-9.732-8.375-20.43-7.252-5.82.61-11.648 2.865-16.326 6.495l.838-3.07-14.99 10.546-2.77 12.175-.227.025-3.782-7.426-10.067 7.078 8.65 15.47-1.933 6.996zm54.11-19.21c.826 7.855-3.207 13.187-11.683 14.073-4.232.45-8.83-.536-9.328-5.28-.77-7.336 10.187-9.423 18.04-10.248l2.786-.297.185 1.754zm88.856-30.536c8.058-.848 12.258 4.346 12.93 10.756l-25.414 2.675c-.208-6.98 5.147-12.658 12.483-13.43zM207.1 16.805c9.942-1.045 18.263 5.957 19.348 16.283 1.1 10.498-5.434 18.895-15.536 19.953-11.158 1.177-17.95-7.325-18.896-16.333-1.12-10.665 5.08-18.853 15.085-19.902z" transform="translate(63 52)"/><path fill="url(#w)" d="M11.948 133.917c-.414-3.926 3.464-5.796 7.392-6.208 4.543-.48 8.936 1.566 11.41 4.23l7.31-7.97c-3.712-3.78-9.502-5.58-15.37-5.726L.534 133.83c-.028.785-.02 1.584.07 2.426.973 9.297 8.623 11.518 16.142 12.505.043.012.08.018.126.02l17.34-6.42c-3.26-1.78-7.22-2.594-10.837-3.063-7.096-.928-11.025-1.56-11.427-5.38z" transform="translate(63 52)"/><path fill="url(#x)" d="M70.324 112.942c-7.338.77-12.754 5.838-14.405 11.023l-.208.025-.838-7.958L43.1 117.27l2.206 20.982 12.692-4.694c.858-4.953 4.02-9.293 10-9.918 3.807-.402 6.27 1.05 7.876 3.3l12.364-4.578c-3.075-6.097-8.913-10.362-17.914-9.42z" transform="translate(63 52)"/><path fill="url(#y)" d="M103 116.897l24.868-9.203c-2.207-.288-4.472-.324-6.68-.095-7.4.78-13.847 4.11-18.19 9.297z" transform="translate(63 52)"/><path fill="url(#z)" d="M178.015 83.877c-1.914-.323-3.692-.346-6.38-.062-10.573 1.11-15.554 6.658-17.23 13.88l23.743-8.787-.133-5.03z" transform="translate(63 52)"/></g></g></svg>